<?xml version="1.0" encoding="utf-8"?>
<!-- Generator: Adobe Illustrator 21.0.2, SVG Export Plug-In . SVG Version: 6.00 Build 0)  -->
<svg version="1.1" id="Capa_1" xmlns="http://www.w3.org/2000/svg" xmlns:xlink="http://www.w3.org/1999/xlink" x="0px" y="0px"
	 viewBox="0 0 792 612" style="enable-background:new 0 0 792 612;" xml:space="preserve">
<style type="text/css">
	.st0{fill-rule:evenodd;clip-rule:evenodd;fill:#AEADB3;}
	.st1{fill-rule:evenodd;clip-rule:evenodd;fill:#C2C3C9;stroke:#C2C3C9;stroke-width:0.216;stroke-miterlimit:22.9256;}
	.st2{fill-rule:evenodd;clip-rule:evenodd;fill:#AEADB3;stroke:#AEADB3;stroke-width:0.216;stroke-miterlimit:22.9256;}
	.st3{fill-rule:evenodd;clip-rule:evenodd;fill:#070900;stroke:#000000;stroke-width:0.216;stroke-miterlimit:22.9256;}
	.st4{fill-rule:evenodd;clip-rule:evenodd;fill:#070900;stroke:#070900;stroke-width:0.216;stroke-miterlimit:22.9256;}
</style>
<path class="st0" d="M157.1,432l-10.2,7.6l10.2,6.5v19.7h-15.9v-11.3l-6.2-4.6l-6.1,4.6v11.3h-15.9v-18.6l10-7.4l-10-7.5v-19.1h15.9
	v11.5l6.2,4.7l6.2-4.7v-11.5h15.9V432L157.1,432z M179.5,427.2v24.5h12.3V433h8l8,8.3v24.4h-44.2l-0.1-52.7h44.2v14.1H179.5
	L179.5,427.2z M229.7,427.2v5.2h22.1v14.1h-22.1v5.2H258v14.1h-44.2v-52.6l44.2-0.1v14.1H229.7L229.7,427.2z M323.9,413.1v52.7
	h-15.9v-38.6H302v38.6H286v-38.6h-6v38.6h-15.9v-52.6L323.9,413.1z"/>
<polygon class="st1" points="112.9,221.9 112.9,264.1 112.9,306.3 173.2,282.2 173.2,264.1 173.2,246.1 "/>
<polygon class="st1" points="218.4,213.7 218.4,146.2 165.6,175.7 127.9,196.8 179.6,235.3 "/>
<polygon class="st1" points="218.4,382 218.4,314.6 195.8,301.9 179.6,292.9 127.9,331.4 165.6,352.5 "/>
<polygon class="st2" points="323.9,221.9 323.9,264.1 323.9,306.3 263.5,282.2 263.5,264.1 263.5,246.1 "/>
<polygon class="st2" points="218.4,382 218.4,314.6 240.9,301.9 257.1,292.9 308.9,331.4 271.1,352.5 "/>
<polygon class="st2" points="218.4,213.7 218.4,146.2 271.1,175.7 308.9,196.8 257.1,235.3 "/>
<path class="st3" d="M512.4,432l-10.2,7.6l10.2,6.5v19.7h-15.9v-11.3l-6.2-4.6l-6.1,4.6v11.3h-15.9v-18.6l10-7.4l-10-7.5v-19.1h15.9
	v11.5l6.2,4.7l6.2-4.7v-11.5h15.9V432L512.4,432z M534.8,427.2v24.5h12.3V433h8l8,8.3v24.4h-44.2l-0.1-52.7h44.2v14.1H534.8
	L534.8,427.2z M585,427.2v5.2h22.1v14.1H585v5.2h28.3v14.1H569v-52.6l44.2-0.1v14.1H585L585,427.2z M679.1,413.1v52.7h-15.9v-38.6
	h-5.9v38.6h-15.9v-38.6h-6v38.6h-15.9v-52.6L679.1,413.1z"/>
<g>
	<polygon class="st4" points="468.1,221.9 468.1,264.1 468.1,306.3 528.5,282.2 528.5,264.1 528.5,246.1 	"/>
	<polygon class="st4" points="573.6,213.7 573.6,146.2 520.9,175.7 483.1,196.8 534.9,235.3 	"/>
	<polygon class="st4" points="573.6,382 573.6,314.6 551.1,301.9 534.9,292.9 483.1,331.4 520.9,352.5 	"/>
	<polygon class="st4" points="679.1,221.9 679.1,264.1 679.1,306.3 618.8,282.2 618.8,264.1 618.8,246.1 	"/>
	<polygon class="st4" points="573.6,382 573.6,314.6 596.2,301.9 612.4,292.9 664.1,331.4 626.4,352.5 	"/>
	<polygon class="st4" points="573.6,213.7 573.6,146.2 626.4,175.7 664.1,196.8 612.4,235.3 	"/>
</g>
</svg>
