  0
SECTION
  2
HEADER
  9
$ACADVER
  1
AC1024
  9
$ACADMAINTVER
 70
     6
  9
$DWGCODEPAGE
  3
UNDEFINED
  9
$INSBASE
 10
0.0
 20
0.0
 30
0.0
  9
$EXTMIN
 10
1.000000000000000E+20
 20
1.000000000000000E+20
 30
1.000000000000000E+20
  9
$EXTMAX
 10
-1.000000000000000E+20
 20
-1.000000000000000E+20
 30
-1.000000000000000E+20
  9
$LIMMIN
 10
0.0
 20
0.0
  9
$LIMMAX
 10
12.0
 20
9.0
  9
$ORTHOMODE
 70
     0
  9
$REGENMODE
 70
     1
  9
$FILLMODE
 70
     1
  9
$QTEXTMODE
 70
     0
  9
$MIRRTEXT
 70
     1
  9
$LTSCALE
 40
1.0
  9
$ATTMODE
 70
     1
  9
$TEXTSIZE
 40
0.2
  9
$TRACEWID
 40
0.05
  9
$TEXTSTYLE
  7
Standard
  9
$CLAYER
  8
0
  9
$CELTYPE
  6
ByLayer
  9
$CECOLOR
 62
   256
  9
$CELTSCALE
 40
1.0
  9
$DISPSILH
 70
     0
  9
$DIMSCALE
 40
1.0
  9
$DIMASZ
 40
0.18
  9
$DIMEXO
 40
0.0625
  9
$DIMDLI
 40
0.38
  9
$DIMRND
 40
0.0
  9
$DIMDLE
 40
0.0
  9
$DIMEXE
 40
0.18
  9
$DIMTP
 40
0.0
  9
$DIMTM
 40
0.0
  9
$DIMTXT
 40
0.18
  9
$DIMCEN
 40
0.09
  9
$DIMTSZ
 40
0.0
  9
$DIMTOL
 70
     0
  9
$DIMLIM
 70
     0
  9
$DIMTIH
 70
     1
  9
$DIMTOH
 70
     1
  9
$DIMSE1
 70
     0
  9
$DIMSE2
 70
     0
  9
$DIMTAD
 70
     0
  9
$DIMZIN
 70
     0
  9
$DIMBLK
  1

  9
$DIMASO
 70
     1
  9
$DIMSHO
 70
     1
  9
$DIMPOST
  1

  9
$DIMAPOST
  1

  9
$DIMALT
 70
     0
  9
$DIMALTD
 70
     2
  9
$DIMALTF
 40
25.4
  9
$DIMLFAC
 40
1.0
  9
$DIMTOFL
 70
     0
  9
$DIMTVP
 40
0.0
  9
$DIMTIX
 70
     0
  9
$DIMSOXD
 70
     0
  9
$DIMSAH
 70
     0
  9
$DIMBLK1
  1

  9
$DIMBLK2
  1

  9
$DIMSTYLE
  2
Standard
  9
$DIMCLRD
 70
     0
  9
$DIMCLRE
 70
     0
  9
$DIMCLRT
 70
     0
  9
$DIMTFAC
 40
1.0
  9
$DIMGAP
 40
0.09
  9
$DIMJUST
 70
     0
  9
$DIMSD1
 70
     0
  9
$DIMSD2
 70
     0
  9
$DIMTOLJ
 70
     1
  9
$DIMTZIN
 70
     0
  9
$DIMALTZ
 70
     0
  9
$DIMALTTZ
 70
     0
  9
$DIMUPT
 70
     0
  9
$DIMDEC
 70
     4
  9
$DIMTDEC
 70
     4
  9
$DIMALTU
 70
     2
  9
$DIMALTTD
 70
     2
  9
$DIMTXSTY
  7
Standard
  9
$DIMAUNIT
 70
     0
  9
$DIMADEC
 70
     0
  9
$DIMALTRND
 40
0.0
  9
$DIMAZIN
 70
     0
  9
$DIMDSEP
 70
    46
  9
$DIMATFIT
 70
     3
  9
$DIMFRAC
 70
     0
  9
$DIMLDRBLK
  1

  9
$DIMLUNIT
 70
     2
  9
$DIMLWD
 70
    -2
  9
$DIMLWE
 70
    -2
  9
$DIMTMOVE
 70
     0
  9
$DIMFXL
 40
1.0
  9
$DIMFXLON
 70
     0
  9
$DIMJOGANG
 40
0.7853981633974483
  9
$DIMTFILL
 70
     0
  9
$DIMTFILLCLR
 70
     0
  9
$DIMARCSYM
 70
     0
  9
$DIMLTYPE
  6

  9
$DIMLTEX1
  6

  9
$DIMLTEX2
  6

  9
$DIMTXTDIRECTION
 70
     0
  9
$LUNITS
 70
     2
  9
$LUPREC
 70
     4
  9
$SKETCHINC
 40
0.1
  9
$FILLETRAD
 40
0.5
  9
$AUNITS
 70
     0
  9
$AUPREC
 70
     0
  9
$MENU
  1
.
  9
$ELEVATION
 40
0.0
  9
$PELEVATION
 40
0.0
  9
$THICKNESS
 40
0.0
  9
$LIMCHECK
 70
     0
  9
$CHAMFERA
 40
0.5
  9
$CHAMFERB
 40
0.5
  9
$CHAMFERC
 40
1.0
  9
$CHAMFERD
 40
0.0
  9
$SKPOLY
 70
     0
  9
$TDCREATE
 40
2457843.338715266
  9
$TDUCREATE
 40
2457843.463715278
  9
$TDUPDATE
 40
2457843.338715266
  9
$TDUUPDATE
 40
2457843.463715278
  9
$TDINDWG
 40
0.0000000116
  9
$TDUSRTIMER
 40
0.0000000116
  9
$USRTIMER
 70
     1
  9
$ANGBASE
 50
0.0
  9
$ANGDIR
 70
     0
  9
$PDMODE
 70
     0
  9
$PDSIZE
 40
0.0
  9
$PLINEWID
 40
0.0
  9
$SPLFRAME
 70
     0
  9
$SPLINETYPE
 70
     6
  9
$SPLINESEGS
 70
     8
  9
$HANDSEED
  5
149
  9
$SURFTAB1
 70
     6
  9
$SURFTAB2
 70
     6
  9
$SURFTYPE
 70
     6
  9
$SURFU
 70
     6
  9
$SURFV
 70
     6
  9
$UCSBASE
  2

  9
$UCSNAME
  2

  9
$UCSORG
 10
0.0
 20
0.0
 30
0.0
  9
$UCSXDIR
 10
1.0
 20
0.0
 30
0.0
  9
$UCSYDIR
 10
0.0
 20
1.0
 30
0.0
  9
$UCSORTHOREF
  2

  9
$UCSORTHOVIEW
 70
     0
  9
$UCSORGTOP
 10
0.0
 20
0.0
 30
0.0
  9
$UCSORGBOTTOM
 10
0.0
 20
0.0
 30
0.0
  9
$UCSORGLEFT
 10
0.0
 20
0.0
 30
0.0
  9
$UCSORGRIGHT
 10
0.0
 20
0.0
 30
0.0
  9
$UCSORGFRONT
 10
0.0
 20
0.0
 30
0.0
  9
$UCSORGBACK
 10
0.0
 20
0.0
 30
0.0
  9
$PUCSBASE
  2

  9
$PUCSNAME
  2

  9
$PUCSORG
 10
0.0
 20
0.0
 30
0.0
  9
$PUCSXDIR
 10
1.0
 20
0.0
 30
0.0
  9
$PUCSYDIR
 10
0.0
 20
1.0
 30
0.0
  9
$PUCSORTHOREF
  2

  9
$PUCSORTHOVIEW
 70
     0
  9
$PUCSORGTOP
 10
0.0
 20
0.0
 30
0.0
  9
$PUCSORGBOTTOM
 10
0.0
 20
0.0
 30
0.0
  9
$PUCSORGLEFT
 10
0.0
 20
0.0
 30
0.0
  9
$PUCSORGRIGHT
 10
0.0
 20
0.0
 30
0.0
  9
$PUCSORGFRONT
 10
0.0
 20
0.0
 30
0.0
  9
$PUCSORGBACK
 10
0.0
 20
0.0
 30
0.0
  9
$USERI1
 70
     0
  9
$USERI2
 70
     0
  9
$USERI3
 70
     0
  9
$USERI4
 70
     0
  9
$USERI5
 70
     0
  9
$USERR1
 40
0.0
  9
$USERR2
 40
0.0
  9
$USERR3
 40
0.0
  9
$USERR4
 40
0.0
  9
$USERR5
 40
0.0
  9
$WORLDVIEW
 70
     1
  9
$SHADEDGE
 70
     3
  9
$SHADEDIF
 70
    70
  9
$TILEMODE
 70
     1
  9
$MAXACTVP
 70
    64
  9
$PINSBASE
 10
0.0
 20
0.0
 30
0.0
  9
$PLIMCHECK
 70
     0
  9
$PEXTMIN
 10
1.000000000000000E+20
 20
1.000000000000000E+20
 30
1.000000000000000E+20
  9
$PEXTMAX
 10
-1.000000000000000E+20
 20
-1.000000000000000E+20
 30
-1.000000000000000E+20
  9
$PLIMMIN
 10
0.0
 20
0.0
  9
$PLIMMAX
 10
12.0
 20
9.0
  9
$UNITMODE
 70
     0
  9
$VISRETAIN
 70
     1
  9
$PLINEGEN
 70
     0
  9
$PSLTSCALE
 70
     1
  9
$TREEDEPTH
 70
  3020
  9
$CMLSTYLE
  2
Standard
  9
$CMLJUST
 70
     0
  9
$CMLSCALE
 40
1.0
  9
$PROXYGRAPHICS
 70
     1
  9
$MEASUREMENT
 70
     0
  9
$CELWEIGHT
370
    -1
  9
$ENDCAPS
280
     0
  9
$JOINSTYLE
280
     0
  9
$LWDISPLAY
290
     1
  9
$INSUNITS
 70
     1
  9
$HYPERLINKBASE
  1

  9
$STYLESHEET
  1

  9
$XEDIT
290
     1
  9
$CEPSNTYPE
380
     0
  9
$PSTYLEMODE
290
     1
  9
$FINGERPRINTGUID
  2
{F8F9C7D6-2123-9719-1A67-031F042060BC}
  9
$VERSIONGUID
  2
{FAEB1C32-E019-11D5-929B-00C0DF256EC4}
  9
$EXTNAMES
290
     1
  9
$PSVPSCALE
 40
0.0
  9
$OLESTARTUP
290
     0
  9
$SORTENTS
280
   127
  9
$INDEXCTL
280
     0
  9
$HIDETEXT
280
     1
  9
$XCLIPFRAME
280
     2
  9
$HALOGAP
280
     0
  9
$OBSCOLOR
 70
   257
  9
$OBSLTYPE
280
     0
  9
$INTERSECTIONDISPLAY
280
     0
  9
$INTERSECTIONCOLOR
 70
   257
  9
$DIMASSOC
280
     2
  9
$PROJECTNAME
  1

  9
$CAMERADISPLAY
290
     0
  9
$LENSLENGTH
 40
50.0
  9
$CAMERAHEIGHT
 40
0.0
  9
$STEPSPERSEC
 40
2.0
  9
$STEPSIZE
 40
6.0
  9
$3DDWFPREC
 40
2.0
  9
$PSOLWIDTH
 40
0.25
  9
$PSOLHEIGHT
 40
4.0
  9
$LOFTANG1
 40
1.570796326794897
  9
$LOFTANG2
 40
1.570796326794897
  9
$LOFTMAG1
 40
0.0
  9
$LOFTMAG2
 40
0.0
  9
$LOFTPARAM
 70
     7
  9
$LOFTNORMALS
280
     1
  9
$LATITUDE
 40
37.795
  9
$LONGITUDE
 40
-122.394
  9
$NORTHDIRECTION
 40
0.0
  9
$TIMEZONE
 70
 -8000
  9
$LIGHTGLYPHDISPLAY
280
     1
  9
$TILEMODELIGHTSYNCH
280
     1
  9
$CMATERIAL
347
3C
  9
$SOLIDHIST
280
     1
  9
$SHOWHIST
280
     1
  9
$DWFFRAME
280
     2
  9
$DGNFRAME
280
     2
  9
$REALWORLDSCALE
290
     1
  9
$INTERFERECOLOR
 62
   256
  9
$CSHADOW
280
     0
  9
$SHADOWPLANELOCATION
 40
0.0
  0
ENDSEC
  0
SECTION
  2
CLASSES
  0
CLASS
  1
ACDBDICTIONARYWDFLT
  2
AcDbDictionaryWithDefault
  3
ObjectDBX Classes
 90
        0
 91
        4
280
     0
281
     0
  0
CLASS
  1
VISUALSTYLE
  2
AcDbVisualStyle
  3
ObjectDBX Classes
 90
     4095
 91
        4
280
     0
281
     0
  0
CLASS
  1
MATERIAL
  2
AcDbMaterial
  3
ObjectDBX Classes
 90
     1153
 91
        4
280
     0
281
     0
  0
CLASS
  1
SUN
  2
AcDbSun
  3
SCENEOE
 90
     1024
 91
        4
280
     0
281
     0
  0
ENDSEC
  0
SECTION
  2
TABLES
  0
TABLE
  2
VPORT
  5
8
330
0
100
AcDbSymbolTable
 70
     1
  0
VPORT
  5
29
330
8
100
AcDbSymbolTableRecord
100
AcDbViewportTableRecord
  2
*Active
 70
     0
 10
0.0
 20
0.0
 11
1.0
 21
1.0
 12
0.0
 22
0.0
 13
0.0
 23
0.0
 14
0.5
 24
0.5
 15
0.5
 25
0.5
 16
0.0
 26
0.0
 36
1.0
 17
13.9699999965075
 27
10.79499999730125
 37
0.0
 40
21.5899999946025
 41
1.294117647058824
 42
50.0
 43
0.0
 44
0.0
 50
0.0
 51
0.0
 71
     0
 72
   100
 73
     1
 74
     3
 75
     0
 76
     0
 77
     0
 78
     0
281
     0
 65
     1
110
0.0
120
0.0
130
0.0
111
1.0
121
0.0
131
0.0
112
0.0
122
1.0
132
0.0
 79
     0
146
0.0
 60
     3
 61
     5
292
     1
282
     1
141
0.0
142
0.0
 63
   250
361
3F
  0
ENDTAB
  0
TABLE
  2
LTYPE
  5
5
330
0
100
AcDbSymbolTable
 70
     1
  0
LTYPE
  5
14
330
5
100
AcDbSymbolTableRecord
100
AcDbLinetypeTableRecord
  2
ByBlock
 70
     0
  3

 72
    65
 73
     0
 40
0.0
  0
LTYPE
  5
15
330
5
100
AcDbSymbolTableRecord
100
AcDbLinetypeTableRecord
  2
ByLayer
 70
     0
  3

 72
    65
 73
     0
 40
0.0
  0
LTYPE
  5
16
330
5
100
AcDbSymbolTableRecord
100
AcDbLinetypeTableRecord
  2
Continuous
 70
     0
  3
Solid line
 72
    65
 73
     0
 40
0.0
  0
ENDTAB
  0
TABLE
  2
LAYER
  5
2
330
0
100
AcDbSymbolTable
 70
     2
  0
LAYER
  5
10
330
2
100
AcDbSymbolTableRecord
100
AcDbLayerTableRecord
  2
0
 70
     0
 62
     7
  6
Continuous
370
    -3
390
F
347
3E
  0
LAYER
  5
40
330
2
100
AcDbSymbolTableRecord
100
AcDbLayerTableRecord
  2
Capa 1
 70
     0
 62
     7
  6
Continuous
370
    -3
390
F
347
3E
  0
ENDTAB
  0
TABLE
  2
STYLE
  5
3
330
0
100
AcDbSymbolTable
 70
     1
  0
STYLE
  5
11
330
3
100
AcDbSymbolTableRecord
100
AcDbTextStyleTableRecord
  2
Standard
 70
     0
 40
0.0
 41
1.0
 50
0.0
 71
     0
 42
0.2
  3
txt
  4

  0
ENDTAB
  0
TABLE
  2
VIEW
  5
6
330
0
100
AcDbSymbolTable
 70
     0
  0
ENDTAB
  0
TABLE
  2
UCS
  5
7
330
0
100
AcDbSymbolTable
 70
     0
  0
ENDTAB
  0
TABLE
  2
APPID
  5
9
330
0
100
AcDbSymbolTable
 70
     1
  0
APPID
  5
12
330
9
100
AcDbSymbolTableRecord
100
AcDbRegAppTableRecord
  2
ACAD
 70
     0
  0
ENDTAB
  0
TABLE
  2
DIMSTYLE
  5
A
330
0
100
AcDbSymbolTable
 70
     1
100
AcDbDimStyleTable
  0
DIMSTYLE
105
27
330
A
100
AcDbSymbolTableRecord
100
AcDbDimStyleTableRecord
  2
Standard
 70
     0
178
     0
340
11
  0
ENDTAB
  0
TABLE
  2
BLOCK_RECORD
  5
1
330
0
100
AcDbSymbolTable
 70
     2
  0
BLOCK_RECORD
  5
1F
330
1
100
AcDbSymbolTableRecord
100
AcDbBlockTableRecord
  2
*Model_Space
340
22
 70
     0
280
     1
281
     0
  0
BLOCK_RECORD
  5
1B
330
1
100
AcDbSymbolTableRecord
100
AcDbBlockTableRecord
  2
*Paper_Space
340
1E
 70
     0
280
     1
281
     0
  0
BLOCK_RECORD
  5
23
330
1
100
AcDbSymbolTableRecord
100
AcDbBlockTableRecord
  2
*Paper_Space0
340
26
 70
     0
280
     1
281
     0
  0
BLOCK_RECORD
  5
109
330
1
100
AcDbSymbolTableRecord
100
AcDbBlockTableRecord
  2
block 2
340
0
102
{BLKREFS
331
10A
102
}
 70
     0
280
     1
281
     0
  0
ENDTAB
  0
ENDSEC
  0
SECTION
  2
BLOCKS
  0
BLOCK
  5
20
330
1F
100
AcDbEntity
  8
0
100
AcDbBlockBegin
  2
*Model_Space
 70
     0
 10
0.0
 20
0.0
 30
0.0
  3
*Model_Space
  1

  0
ENDBLK
  5
21
330
1F
100
AcDbEntity
  8
0
100
AcDbBlockEnd
  0
BLOCK
  5
1C
330
1B
100
AcDbEntity
 67
     1
  8
0
100
AcDbBlockBegin
  2
*Paper_Space
 70
     0
 10
0.0
 20
0.0
 30
0.0
  3
*Paper_Space
  1

  0
ENDBLK
  5
1D
330
1B
100
AcDbEntity
 67
     1
  8
0
100
AcDbBlockEnd
  0
BLOCK
  5
24
330
23
100
AcDbEntity
  8
0
100
AcDbBlockBegin
  2
*Paper_Space0
 70
     0
 10
0.0
 20
0.0
 30
0.0
  3
*Paper_Space0
  1

  0
ENDBLK
  5
25
330
23
100
AcDbEntity
  8
0
100
AcDbBlockEnd
  0
BLOCK
  5
10B
330
109
100
AcDbEntity
  8
0
100
AcDbBlockBegin
  2
block 2
 70
     0
 10
0.0
 20
0.0
 30
0.0
  3
block 2
  1

  0
POLYLINE
  5
10D
330
109
100
AcDbEntity
  8
Capa 1
 62
   178
420
   395264
370
     9
100
AcDb2dPolyline
 66
     1
 10
0.0
 20
0.0
 30
0.0
  0
VERTEX
  5
10E
330
10D
100
AcDbEntity
  8
Capa 1
 62
   178
420
   395264
370
     9
100
AcDbVertex
100
AcDb2dVertex
 10
16.51480793978326
 20
13.76060134338226
 30
0.0
  0
VERTEX
  5
10F
330
10D
100
AcDbEntity
  8
Capa 1
 62
   178
420
   395264
370
     9
100
AcDbVertex
100
AcDb2dVertex
 10
16.51480793978326
 20
12.27238010357216
 30
0.0
  0
VERTEX
  5
110
330
10D
100
AcDbEntity
  8
Capa 1
 62
   178
420
   395264
370
     9
100
AcDbVertex
100
AcDb2dVertex
 10
16.51480793978326
 20
10.78416944709514
 30
0.0
  0
VERTEX
  5
111
330
10D
100
AcDbEntity
  8
Capa 1
 62
   178
420
   395264
370
     9
100
AcDbVertex
100
AcDb2dVertex
 10
18.64446030211797
 20
11.63571853648142
 30
0.0
  0
VERTEX
  5
112
330
10D
100
AcDbEntity
  8
Capa 1
 62
   178
420
   395264
370
     9
100
AcDbVertex
100
AcDb2dVertex
 10
18.64446030211797
 20
12.27238010357216
 30
0.0
  0
VERTEX
  5
113
330
10D
100
AcDbEntity
  8
Capa 1
 62
   178
420
   395264
370
     9
100
AcDbVertex
100
AcDb2dVertex
 10
18.64446030211797
 20
12.90903814288522
 30
0.0
  0
VERTEX
  5
114
330
10D
100
AcDbEntity
  8
Capa 1
 62
   178
420
   395264
370
     9
100
AcDbVertex
100
AcDb2dVertex
 10
16.51480793978326
 20
13.76060134338226
 30
0.0
  0
SEQEND
  5
116
330
10D
100
AcDbEntity
  8
Capa 1
 62
   178
420
   395264
370
     9
  0
HATCH
  5
115
330
109
100
AcDbEntity
  8
Capa 1
 62
   178
420
   395264
100
AcDbHatch
 10
0.0
 20
0.0
 30
0.0
210
0.0
220
0.0
230
1.0
  2
SOLID
 70
     1
 71
     0
 91
        1
 92
        1
 93
        6
 72
     1
 10
16.51480793978326
 20
13.76060134338226
 11
16.51480793978326
 21
12.27238010357216
 72
     1
 10
16.51480793978326
 20
12.27238010357216
 11
16.51480793978326
 21
10.78416944709514
 72
     1
 10
16.51480793978326
 20
10.78416944709514
 11
18.64446030211797
 21
11.63571853648142
 72
     1
 10
18.64446030211797
 20
11.63571853648142
 11
18.64446030211797
 21
12.27238010357216
 72
     1
 10
18.64446030211797
 20
12.27238010357216
 11
18.64446030211797
 21
12.90903814288522
 72
     1
 10
18.64446030211797
 20
12.90903814288522
 11
16.51480793978326
 21
13.76060134338226
 97
        0
 75
     0
 76
     1
 98
        0
  0
POLYLINE
  5
117
330
109
100
AcDbEntity
  8
Capa 1
 62
   178
420
   395264
370
     9
100
AcDb2dPolyline
 66
     1
 10
0.0
 20
0.0
 30
0.0
  0
VERTEX
  5
118
330
117
100
AcDbEntity
  8
Capa 1
 62
   178
420
   395264
370
     9
100
AcDbVertex
100
AcDb2dVertex
 10
20.23665926149759
 20
14.0515089470717
 30
0.0
  0
VERTEX
  5
119
330
117
100
AcDbEntity
  8
Capa 1
 62
   178
420
   395264
370
     9
100
AcDbVertex
100
AcDb2dVertex
 10
20.23665926149759
 20
16.43116080302838
 30
0.0
  0
VERTEX
  5
11A
330
117
100
AcDbEntity
  8
Capa 1
 62
   178
420
   395264
370
     9
100
AcDbVertex
100
AcDb2dVertex
 10
18.37572125341852
 20
15.39146121844222
 30
0.0
  0
VERTEX
  5
11B
330
117
100
AcDbEntity
  8
Capa 1
 62
   178
420
   395264
370
     9
100
AcDbVertex
100
AcDb2dVertex
 10
17.04387934295219
 20
14.64736823742561
 30
0.0
  0
VERTEX
  5
11C
330
117
100
AcDbEntity
  8
Capa 1
 62
   178
420
   395264
370
     9
100
AcDbVertex
100
AcDb2dVertex
 10
18.8707778241219
 20
13.28840829987335
 30
0.0
  0
VERTEX
  5
11D
330
117
100
AcDbEntity
  8
Capa 1
 62
   178
420
   395264
370
     9
100
AcDbVertex
100
AcDb2dVertex
 10
20.23665926149759
 20
14.0515089470717
 30
0.0
  0
SEQEND
  5
11F
330
117
100
AcDbEntity
  8
Capa 1
 62
   178
420
   395264
370
     9
  0
HATCH
  5
11E
330
109
100
AcDbEntity
  8
Capa 1
 62
   178
420
   395264
100
AcDbHatch
 10
0.0
 20
0.0
 30
0.0
210
0.0
220
0.0
230
1.0
  2
SOLID
 70
     1
 71
     0
 91
        1
 92
        1
 93
        5
 72
     1
 10
20.23665926149759
 20
14.0515089470717
 11
20.23665926149759
 21
16.43116080302838
 72
     1
 10
20.23665926149759
 20
16.43116080302838
 11
18.37572125341852
 21
15.39146121844222
 72
     1
 10
18.37572125341852
 20
15.39146121844222
 11
17.04387934295219
 21
14.64736823742561
 72
     1
 10
17.04387934295219
 20
14.64736823742561
 11
18.8707778241219
 21
13.28840829987335
 72
     1
 10
18.8707778241219
 20
13.28840829987335
 11
20.23665926149759
 21
14.0515089470717
 97
        0
 75
     0
 76
     1
 98
        0
  0
POLYLINE
  5
120
330
109
100
AcDbEntity
  8
Capa 1
 62
   178
420
   395264
370
     9
100
AcDb2dPolyline
 66
     1
 10
0.0
 20
0.0
 30
0.0
  0
VERTEX
  5
121
330
120
100
AcDbEntity
  8
Capa 1
 62
   178
420
   395264
370
     9
100
AcDbVertex
100
AcDb2dVertex
 10
20.23665926149759
 20
8.113599404115945
 30
0.0
  0
VERTEX
  5
122
330
120
100
AcDbEntity
  8
Capa 1
 62
   178
420
   395264
370
     9
100
AcDbVertex
100
AcDb2dVertex
 10
20.23665926149759
 20
10.49325831562801
 30
0.0
  0
VERTEX
  5
123
330
120
100
AcDbEntity
  8
Capa 1
 62
   178
420
   395264
370
     9
100
AcDbVertex
100
AcDb2dVertex
 10
19.44057036514084
 20
10.93804052650289
 30
0.0
  0
VERTEX
  5
124
330
120
100
AcDbEntity
  8
Capa 1
 62
   178
420
   395264
370
     9
100
AcDbVertex
100
AcDb2dVertex
 10
18.8707778241219
 20
11.25635896282636
 30
0.0
  0
VERTEX
  5
125
330
120
100
AcDbEntity
  8
Capa 1
 62
   178
420
   395264
370
     9
100
AcDbVertex
100
AcDb2dVertex
 10
17.04387934295219
 20
9.89739902527409
 30
0.0
  0
VERTEX
  5
126
330
120
100
AcDbEntity
  8
Capa 1
 62
   178
420
   395264
370
     9
100
AcDbVertex
100
AcDb2dVertex
 10
18.37572125341852
 20
9.153309572035173
 30
0.0
  0
VERTEX
  5
127
330
120
100
AcDbEntity
  8
Capa 1
 62
   178
420
   395264
370
     9
100
AcDbVertex
100
AcDb2dVertex
 10
20.23665926149759
 20
8.113599404115945
 30
0.0
  0
SEQEND
  5
129
330
120
100
AcDbEntity
  8
Capa 1
 62
   178
420
   395264
370
     9
  0
HATCH
  5
128
330
109
100
AcDbEntity
  8
Capa 1
 62
   178
420
   395264
100
AcDbHatch
 10
0.0
 20
0.0
 30
0.0
210
0.0
220
0.0
230
1.0
  2
SOLID
 70
     1
 71
     0
 91
        1
 92
        1
 93
        6
 72
     1
 10
20.23665926149759
 20
8.113599404115945
 11
20.23665926149759
 21
10.49325831562801
 72
     1
 10
20.23665926149759
 20
10.49325831562801
 11
19.44057036514084
 21
10.93804052650289
 72
     1
 10
19.44057036514084
 20
10.93804052650289
 11
18.8707778241219
 21
11.25635896282636
 72
     1
 10
18.8707778241219
 20
11.25635896282636
 11
17.04387934295219
 21
9.89739902527409
 72
     1
 10
17.04387934295219
 20
9.89739902527409
 11
18.37572125341852
 21
9.153309572035173
 72
     1
 10
18.37572125341852
 20
9.153309572035173
 11
20.23665926149759
 21
8.113599404115945
 97
        0
 75
     0
 76
     1
 98
        0
  0
POLYLINE
  5
12A
330
109
100
AcDbEntity
  8
Capa 1
 62
   178
420
   395264
370
     9
100
AcDb2dPolyline
 66
     1
 10
0.0
 20
0.0
 30
0.0
  0
VERTEX
  5
12B
330
12A
100
AcDbEntity
  8
Capa 1
 62
   178
420
   395264
370
     9
100
AcDbVertex
100
AcDb2dVertex
 10
23.95851058321191
 20
13.76060134338226
 30
0.0
  0
VERTEX
  5
12C
330
12A
100
AcDbEntity
  8
Capa 1
 62
   178
420
   395264
370
     9
100
AcDbVertex
100
AcDb2dVertex
 10
23.95851058321191
 20
12.27238010357216
 30
0.0
  0
VERTEX
  5
12D
330
12A
100
AcDbEntity
  8
Capa 1
 62
   178
420
   395264
370
     9
100
AcDbVertex
100
AcDb2dVertex
 10
23.95851058321191
 20
10.78416944709514
 30
0.0
  0
VERTEX
  5
12E
330
12A
100
AcDbEntity
  8
Capa 1
 62
   178
420
   395264
370
     9
100
AcDbVertex
100
AcDb2dVertex
 10
21.82886880421027
 20
11.63571853648142
 30
0.0
  0
VERTEX
  5
12F
330
12A
100
AcDbEntity
  8
Capa 1
 62
   178
420
   395264
370
     9
100
AcDbVertex
100
AcDb2dVertex
 10
21.82886880421027
 20
12.27238010357216
 30
0.0
  0
VERTEX
  5
130
330
12A
100
AcDbEntity
  8
Capa 1
 62
   178
420
   395264
370
     9
100
AcDbVertex
100
AcDb2dVertex
 10
21.82886880421027
 20
12.90903814288522
 30
0.0
  0
VERTEX
  5
131
330
12A
100
AcDbEntity
  8
Capa 1
 62
   178
420
   395264
370
     9
100
AcDbVertex
100
AcDb2dVertex
 10
23.95851058321191
 20
13.76060134338226
 30
0.0
  0
SEQEND
  5
133
330
12A
100
AcDbEntity
  8
Capa 1
 62
   178
420
   395264
370
     9
  0
HATCH
  5
132
330
109
100
AcDbEntity
  8
Capa 1
 62
   178
420
   395264
100
AcDbHatch
 10
0.0
 20
0.0
 30
0.0
210
0.0
220
0.0
230
1.0
  2
SOLID
 70
     1
 71
     0
 91
        1
 92
        1
 93
        6
 72
     1
 10
23.95851058321191
 20
13.76060134338226
 11
23.95851058321191
 21
12.27238010357216
 72
     1
 10
23.95851058321191
 20
12.27238010357216
 11
23.95851058321191
 21
10.78416944709514
 72
     1
 10
23.95851058321191
 20
10.78416944709514
 11
21.82886880421027
 21
11.63571853648142
 72
     1
 10
21.82886880421027
 20
11.63571853648142
 11
21.82886880421027
 21
12.27238010357216
 72
     1
 10
21.82886880421027
 20
12.27238010357216
 11
21.82886880421027
 21
12.90903814288522
 72
     1
 10
21.82886880421027
 20
12.90903814288522
 11
23.95851058321191
 21
13.76060134338226
 97
        0
 75
     0
 76
     1
 98
        0
  0
POLYLINE
  5
134
330
109
100
AcDbEntity
  8
Capa 1
 62
   178
420
   395264
370
     9
100
AcDb2dPolyline
 66
     1
 10
0.0
 20
0.0
 30
0.0
  0
VERTEX
  5
135
330
134
100
AcDbEntity
  8
Capa 1
 62
   178
420
   395264
370
     9
100
AcDbVertex
100
AcDb2dVertex
 10
20.23665926149759
 20
8.113599404115945
 30
0.0
  0
VERTEX
  5
136
330
134
100
AcDbEntity
  8
Capa 1
 62
   178
420
   395264
370
     9
100
AcDbVertex
100
AcDb2dVertex
 10
20.23665926149759
 20
10.49325831562801
 30
0.0
  0
VERTEX
  5
137
330
134
100
AcDbEntity
  8
Capa 1
 62
   178
420
   395264
370
     9
100
AcDbVertex
100
AcDb2dVertex
 10
21.03276932452046
 20
10.93804052650289
 30
0.0
  0
VERTEX
  5
138
330
134
100
AcDbEntity
  8
Capa 1
 62
   178
420
   395264
370
     9
100
AcDbVertex
100
AcDb2dVertex
 10
21.6025301155402
 20
11.25636954615942
 30
0.0
  0
VERTEX
  5
139
330
134
100
AcDbEntity
  8
Capa 1
 62
   178
420
   395264
370
     9
100
AcDbVertex
100
AcDb2dVertex
 10
23.42943918004298
 20
9.897409608607154
 30
0.0
  0
VERTEX
  5
13A
330
134
100
AcDbEntity
  8
Capa 1
 62
   178
420
   395264
370
     9
100
AcDbVertex
100
AcDb2dVertex
 10
22.09759021402128
 20
9.15329898870211
 30
0.0
  0
VERTEX
  5
13B
330
134
100
AcDbEntity
  8
Capa 1
 62
   178
420
   395264
370
     9
100
AcDbVertex
100
AcDb2dVertex
 10
20.23665926149759
 20
8.113599404115945
 30
0.0
  0
SEQEND
  5
13D
330
134
100
AcDbEntity
  8
Capa 1
 62
   178
420
   395264
370
     9
  0
HATCH
  5
13C
330
109
100
AcDbEntity
  8
Capa 1
 62
   178
420
   395264
100
AcDbHatch
 10
0.0
 20
0.0
 30
0.0
210
0.0
220
0.0
230
1.0
  2
SOLID
 70
     1
 71
     0
 91
        1
 92
        1
 93
        6
 72
     1
 10
20.23665926149759
 20
8.113599404115945
 11
20.23665926149759
 21
10.49325831562801
 72
     1
 10
20.23665926149759
 20
10.49325831562801
 11
21.03276932452046
 21
10.93804052650289
 72
     1
 10
21.03276932452046
 20
10.93804052650289
 11
21.6025301155402
 21
11.25636954615942
 72
     1
 10
21.6025301155402
 20
11.25636954615942
 11
23.42943918004298
 21
9.897409608607154
 72
     1
 10
23.42943918004298
 20
9.897409608607154
 11
22.09759021402128
 21
9.15329898870211
 72
     1
 10
22.09759021402128
 20
9.15329898870211
 11
20.23665926149759
 21
8.113599404115945
 97
        0
 75
     0
 76
     1
 98
        0
  0
POLYLINE
  5
13E
330
109
100
AcDbEntity
  8
Capa 1
 62
   178
420
   395264
370
     9
100
AcDb2dPolyline
 66
     1
 10
0.0
 20
0.0
 30
0.0
  0
VERTEX
  5
13F
330
13E
100
AcDbEntity
  8
Capa 1
 62
   178
420
   395264
370
     9
100
AcDbVertex
100
AcDb2dVertex
 10
20.23665926149759
 20
14.0515089470717
 30
0.0
  0
VERTEX
  5
140
330
13E
100
AcDbEntity
  8
Capa 1
 62
   178
420
   395264
370
     9
100
AcDbVertex
100
AcDb2dVertex
 10
20.23665926149759
 20
16.43116080302838
 30
0.0
  0
VERTEX
  5
141
330
13E
100
AcDbEntity
  8
Capa 1
 62
   178
420
   395264
370
     9
100
AcDbVertex
100
AcDb2dVertex
 10
22.09759021402128
 20
15.3914682739976
 30
0.0
  0
VERTEX
  5
142
330
13E
100
AcDbEntity
  8
Capa 1
 62
   178
420
   395264
370
     9
100
AcDbVertex
100
AcDb2dVertex
 10
23.42943918004298
 20
14.64736118187024
 30
0.0
  0
VERTEX
  5
143
330
13E
100
AcDbEntity
  8
Capa 1
 62
   178
420
   395264
370
     9
100
AcDbVertex
100
AcDb2dVertex
 10
21.6025301155402
 20
13.28840124431797
 30
0.0
  0
VERTEX
  5
144
330
13E
100
AcDbEntity
  8
Capa 1
 62
   178
420
   395264
370
     9
100
AcDbVertex
100
AcDb2dVertex
 10
20.23665926149759
 20
14.0515089470717
 30
0.0
  0
SEQEND
  5
146
330
13E
100
AcDbEntity
  8
Capa 1
 62
   178
420
   395264
370
     9
  0
HATCH
  5
145
330
109
100
AcDbEntity
  8
Capa 1
 62
   178
420
   395264
100
AcDbHatch
 10
0.0
 20
0.0
 30
0.0
210
0.0
220
0.0
230
1.0
  2
SOLID
 70
     1
 71
     0
 91
        1
 92
        1
 93
        5
 72
     1
 10
20.23665926149759
 20
14.0515089470717
 11
20.23665926149759
 21
16.43116080302838
 72
     1
 10
20.23665926149759
 20
16.43116080302838
 11
22.09759021402128
 21
15.3914682739976
 72
     1
 10
22.09759021402128
 20
15.3914682739976
 11
23.42943918004298
 21
14.64736118187024
 72
     1
 10
23.42943918004298
 20
14.64736118187024
 11
21.6025301155402
 21
13.28840124431797
 72
     1
 10
21.6025301155402
 20
13.28840124431797
 11
20.23665926149759
 21
14.0515089470717
 97
        0
 75
     0
 76
     1
 98
        0
  0
ENDBLK
  5
10C
330
109
100
AcDbEntity
  8
0
100
AcDbBlockEnd
  0
ENDSEC
  0
SECTION
  2
ENTITIES
  0
POLYLINE
  5
41
330
1F
100
AcDbEntity
  8
Capa 1
370
     0
100
AcDb2dPolyline
 66
     1
 10
0.0
 20
0.0
 30
0.0
  0
VERTEX
  5
42
330
41
100
AcDbEntity
  8
Capa 1
370
     0
100
AcDbVertex
100
AcDb2dVertex
 10
5.541888275281317
 20
6.350910004641453
 30
0.0
  0
VERTEX
  5
43
330
41
100
AcDbEntity
  8
Capa 1
370
     0
100
AcDbVertex
100
AcDb2dVertex
 10
5.180978978933325
 20
6.084150039224845
 30
0.0
  0
VERTEX
  5
44
330
41
100
AcDbEntity
  8
Capa 1
370
     0
100
AcDbVertex
100
AcDb2dVertex
 10
5.541888275281317
 20
5.85352862844182
 30
0.0
  0
VERTEX
  5
45
330
41
100
AcDbEntity
  8
Capa 1
370
     0
100
AcDbVertex
100
AcDb2dVertex
 10
5.541888275281317
 20
5.158831590609463
 30
0.0
  0
VERTEX
  5
46
330
41
100
AcDbEntity
  8
Capa 1
370
     0
100
AcDbVertex
100
AcDb2dVertex
 10
4.97929945630082
 20
5.158831590609463
 30
0.0
  0
VERTEX
  5
47
330
41
100
AcDbEntity
  8
Capa 1
370
     0
100
AcDbVertex
100
AcDb2dVertex
 10
4.97929945630082
 20
5.558980358178595
 30
0.0
  0
VERTEX
  5
48
330
41
100
AcDbEntity
  8
Capa 1
370
     0
100
AcDbVertex
100
AcDb2dVertex
 10
4.759028545253733
 20
5.722919715107265
 30
0.0
  0
VERTEX
  5
49
330
41
100
AcDbEntity
  8
Capa 1
370
     0
100
AcDbVertex
100
AcDb2dVertex
 10
4.544091634070564
 20
5.558980358178595
 30
0.0
  0
VERTEX
  5
4A
330
41
100
AcDbEntity
  8
Capa 1
370
     0
100
AcDbVertex
100
AcDb2dVertex
 10
4.544091634070564
 20
5.158831590609463
 30
0.0
  0
VERTEX
  5
4B
330
41
100
AcDbEntity
  8
Capa 1
370
     0
100
AcDbVertex
100
AcDb2dVertex
 10
3.981488703979316
 20
5.158831590609463
 30
0.0
  0
VERTEX
  5
4C
330
41
100
AcDbEntity
  8
Capa 1
370
     0
100
AcDbVertex
100
AcDb2dVertex
 10
3.981488703979316
 20
5.814620768323332
 30
0.0
  0
VERTEX
  5
4D
330
41
100
AcDbEntity
  8
Capa 1
370
     0
100
AcDbVertex
100
AcDb2dVertex
 10
4.334449917196747
 20
6.075820956104004
 30
0.0
  0
VERTEX
  5
4E
330
41
100
AcDbEntity
  8
Capa 1
370
     0
100
AcDbVertex
100
AcDb2dVertex
 10
3.981488703979316
 20
6.33980808825802
 30
0.0
  0
VERTEX
  5
4F
330
41
100
AcDbEntity
  8
Capa 1
370
     0
100
AcDbVertex
100
AcDb2dVertex
 10
3.981488703979316
 20
7.015038848809226
 30
0.0
  0
VERTEX
  5
50
330
41
100
AcDbEntity
  8
Capa 1
370
     0
100
AcDbVertex
100
AcDb2dVertex
 10
4.544091634070564
 20
7.015038848809226
 30
0.0
  0
VERTEX
  5
51
330
41
100
AcDbEntity
  8
Capa 1
370
     0
100
AcDbVertex
100
AcDb2dVertex
 10
4.544091634070564
 20
6.609340886937221
 30
0.0
  0
VERTEX
  5
52
330
41
100
AcDbEntity
  8
Capa 1
370
     0
100
AcDbVertex
100
AcDb2dVertex
 10
4.761699072963379
 20
6.44261105785752
 30
0.0
  0
VERTEX
  5
53
330
41
100
AcDbEntity
  8
Capa 1
370
     0
100
AcDbVertex
100
AcDb2dVertex
 10
4.97929945630082
 20
6.609340886937221
 30
0.0
  0
VERTEX
  5
54
330
41
100
AcDbEntity
  8
Capa 1
370
     0
100
AcDbVertex
100
AcDb2dVertex
 10
4.97929945630082
 20
7.015038848809226
 30
0.0
  0
VERTEX
  5
55
330
41
100
AcDbEntity
  8
Capa 1
370
     0
100
AcDbVertex
100
AcDb2dVertex
 10
5.541888275281317
 20
7.015038848809226
 30
0.0
  0
VERTEX
  5
56
330
41
100
AcDbEntity
  8
Capa 1
370
     0
100
AcDbVertex
100
AcDb2dVertex
 10
5.541888275281317
 20
6.350910004641453
 30
0.0
  0
VERTEX
  5
57
330
41
100
AcDbEntity
  8
Capa 1
370
     0
100
AcDbVertex
100
AcDb2dVertex
 10
5.541888275281317
 20
6.350910004641453
 30
0.0
  0
SEQEND
  5
58
330
41
100
AcDbEntity
  8
Capa 1
370
     0
  0
POLYLINE
  5
59
330
1F
100
AcDbEntity
  8
Capa 1
370
     0
100
AcDb2dPolyline
 66
     1
 10
0.0
 20
0.0
 30
0.0
  0
VERTEX
  5
5A
330
59
100
AcDbEntity
  8
Capa 1
370
     0
100
AcDbVertex
100
AcDb2dVertex
 10
6.33269961621715
 20
6.520419722539122
 30
0.0
  0
VERTEX
  5
5B
330
59
100
AcDbEntity
  8
Capa 1
370
     0
100
AcDbVertex
100
AcDb2dVertex
 10
6.33269961621715
 20
5.656230605697535
 30
0.0
  0
VERTEX
  5
5C
330
59
100
AcDbEntity
  8
Capa 1
370
     0
100
AcDbVertex
100
AcDb2dVertex
 10
6.767900382892031
 20
5.656230605697535
 30
0.0
  0
VERTEX
  5
5D
330
59
100
AcDbEntity
  8
Capa 1
370
     0
100
AcDbVertex
100
AcDb2dVertex
 10
6.767900382892031
 20
6.314789088896308
 30
0.0
  0
VERTEX
  5
5E
330
59
100
AcDbEntity
  8
Capa 1
370
     0
100
AcDbVertex
100
AcDb2dVertex
 10
7.049198320159968
 20
6.314789088896308
 30
0.0
  0
VERTEX
  5
5F
330
59
100
AcDbEntity
  8
Capa 1
370
     0
100
AcDbVertex
100
AcDb2dVertex
 10
7.330489201872528
 20
6.020240818633082
 30
0.0
  0
VERTEX
  5
60
330
59
100
AcDbEntity
  8
Capa 1
370
     0
100
AcDbVertex
100
AcDb2dVertex
 10
7.330489201872528
 20
5.158831590609463
 30
0.0
  0
VERTEX
  5
61
330
59
100
AcDbEntity
  8
Capa 1
370
     0
100
AcDbVertex
100
AcDb2dVertex
 10
5.77274957494711
 20
5.158831590609463
 30
0.0
  0
VERTEX
  5
62
330
59
100
AcDbEntity
  8
Capa 1
370
     0
100
AcDbVertex
100
AcDb2dVertex
 10
5.770110797236653
 20
7.017808154294131
 30
0.0
  0
VERTEX
  5
63
330
59
100
AcDbEntity
  8
Capa 1
370
     0
100
AcDbVertex
100
AcDb2dVertex
 10
7.330489201872528
 20
7.017808154294131
 30
0.0
  0
VERTEX
  5
64
330
59
100
AcDbEntity
  8
Capa 1
370
     0
100
AcDbVertex
100
AcDb2dVertex
 10
7.330489201872528
 20
6.520419722539122
 30
0.0
  0
VERTEX
  5
65
330
59
100
AcDbEntity
  8
Capa 1
370
     0
100
AcDbVertex
100
AcDb2dVertex
 10
6.33269961621715
 20
6.520419722539122
 30
0.0
  0
VERTEX
  5
66
330
59
100
AcDbEntity
  8
Capa 1
370
     0
100
AcDbVertex
100
AcDb2dVertex
 10
6.33269961621715
 20
6.520419722539122
 30
0.0
  0
SEQEND
  5
67
330
59
100
AcDbEntity
  8
Capa 1
370
     0
  0
POLYLINE
  5
68
330
1F
100
AcDbEntity
  8
Capa 1
370
     0
100
AcDb2dPolyline
 66
     1
 10
0.0
 20
0.0
 30
0.0
  0
VERTEX
  5
69
330
68
100
AcDbEntity
  8
Capa 1
370
     0
100
AcDbVertex
100
AcDb2dVertex
 10
8.102730321059905
 20
6.520419722539122
 30
0.0
  0
VERTEX
  5
6A
330
68
100
AcDbEntity
  8
Capa 1
370
     0
100
AcDbVertex
100
AcDb2dVertex
 10
8.102730321059905
 20
6.337021143884677
 30
0.0
  0
VERTEX
  5
6B
330
68
100
AcDbEntity
  8
Capa 1
370
     0
100
AcDbVertex
100
AcDb2dVertex
 10
8.882919523377842
 20
6.337021143884677
 30
0.0
  0
VERTEX
  5
6C
330
68
100
AcDbEntity
  8
Capa 1
370
     0
100
AcDbVertex
100
AcDb2dVertex
 10
8.882919523377842
 20
5.83962918435198
 30
0.0
  0
VERTEX
  5
6D
330
68
100
AcDbEntity
  8
Capa 1
370
     0
100
AcDbVertex
100
AcDb2dVertex
 10
8.102730321059905
 20
5.83962918435198
 30
0.0
  0
VERTEX
  5
6E
330
68
100
AcDbEntity
  8
Capa 1
370
     0
100
AcDbVertex
100
AcDb2dVertex
 10
8.102730321059905
 20
5.656230605697535
 30
0.0
  0
VERTEX
  5
6F
330
68
100
AcDbEntity
  8
Capa 1
370
     0
100
AcDbVertex
100
AcDb2dVertex
 10
9.100530490048346
 20
5.656230605697535
 30
0.0
  0
VERTEX
  5
70
330
68
100
AcDbEntity
  8
Capa 1
370
     0
100
AcDbVertex
100
AcDb2dVertex
 10
9.100530490048346
 20
5.158831590609463
 30
0.0
  0
VERTEX
  5
71
330
68
100
AcDbEntity
  8
Capa 1
370
     0
100
AcDbVertex
100
AcDb2dVertex
 10
7.540141502079408
 20
5.158831590609463
 30
0.0
  0
VERTEX
  5
72
330
68
100
AcDbEntity
  8
Capa 1
370
     0
100
AcDbVertex
100
AcDb2dVertex
 10
7.540141502079408
 20
7.015038848809226
 30
0.0
  0
VERTEX
  5
73
330
68
100
AcDbEntity
  8
Capa 1
370
     0
100
AcDbVertex
100
AcDb2dVertex
 10
9.100530490048346
 20
7.017808154294131
 30
0.0
  0
VERTEX
  5
74
330
68
100
AcDbEntity
  8
Capa 1
370
     0
100
AcDbVertex
100
AcDb2dVertex
 10
9.100530490048346
 20
6.520419722539122
 30
0.0
  0
VERTEX
  5
75
330
68
100
AcDbEntity
  8
Capa 1
370
     0
100
AcDbVertex
100
AcDb2dVertex
 10
8.102730321059905
 20
6.520419722539122
 30
0.0
  0
VERTEX
  5
76
330
68
100
AcDbEntity
  8
Capa 1
370
     0
100
AcDbVertex
100
AcDb2dVertex
 10
8.102730321059905
 20
6.520419722539122
 30
0.0
  0
SEQEND
  5
77
330
68
100
AcDbEntity
  8
Capa 1
370
     0
  0
POLYLINE
  5
78
330
1F
100
AcDbEntity
  8
Capa 1
370
     0
100
AcDb2dPolyline
 66
     1
 10
0.0
 20
0.0
 30
0.0
  0
VERTEX
  5
79
330
78
100
AcDbEntity
  8
Capa 1
370
     0
100
AcDbVertex
100
AcDb2dVertex
 10
11.42519134740797
 20
7.017808154294131
 30
0.0
  0
VERTEX
  5
7A
330
78
100
AcDbEntity
  8
Capa 1
370
     0
100
AcDbVertex
100
AcDb2dVertex
 10
11.42519134740797
 20
5.158831590609463
 30
0.0
  0
VERTEX
  5
7B
330
78
100
AcDbEntity
  8
Capa 1
370
     0
100
AcDbVertex
100
AcDb2dVertex
 10
10.86259900064979
 20
5.158831590609463
 30
0.0
  0
VERTEX
  5
7C
330
78
100
AcDbEntity
  8
Capa 1
370
     0
100
AcDbVertex
100
AcDb2dVertex
 10
10.86259900064979
 20
6.520419722539122
 30
0.0
  0
VERTEX
  5
7D
330
78
100
AcDbEntity
  8
Capa 1
370
     0
100
AcDbVertex
100
AcDb2dVertex
 10
10.65296081155366
 20
6.520419722539122
 30
0.0
  0
VERTEX
  5
7E
330
78
100
AcDbEntity
  8
Capa 1
370
     0
100
AcDbVertex
100
AcDb2dVertex
 10
10.65296081155366
 20
5.158831590609463
 30
0.0
  0
VERTEX
  5
7F
330
78
100
AcDbEntity
  8
Capa 1
370
     0
100
AcDbVertex
100
AcDb2dVertex
 10
10.09036846479547
 20
5.158831590609463
 30
0.0
  0
VERTEX
  5
80
330
78
100
AcDbEntity
  8
Capa 1
370
     0
100
AcDbVertex
100
AcDb2dVertex
 10
10.09036846479547
 20
6.520419722539122
 30
0.0
  0
VERTEX
  5
81
330
78
100
AcDbEntity
  8
Capa 1
370
     0
100
AcDbVertex
100
AcDb2dVertex
 10
9.878070331322762
 20
6.520419722539122
 30
0.0
  0
VERTEX
  5
82
330
78
100
AcDbEntity
  8
Capa 1
370
     0
100
AcDbVertex
100
AcDb2dVertex
 10
9.878070331322762
 20
5.158831590609463
 30
0.0
  0
VERTEX
  5
83
330
78
100
AcDbEntity
  8
Capa 1
370
     0
100
AcDbVertex
100
AcDb2dVertex
 10
9.315481512342267
 20
5.158831590609463
 30
0.0
  0
VERTEX
  5
84
330
78
100
AcDbEntity
  8
Capa 1
370
     0
100
AcDbVertex
100
AcDb2dVertex
 10
9.315481512342267
 20
7.015038848809226
 30
0.0
  0
VERTEX
  5
85
330
78
100
AcDbEntity
  8
Capa 1
370
     0
100
AcDbVertex
100
AcDb2dVertex
 10
11.42519134740797
 20
7.017808154294131
 30
0.0
  0
SEQEND
  5
86
330
78
100
AcDbEntity
  8
Capa 1
370
     0
  0
HATCH
  5
87
330
1F
100
AcDbEntity
  8
Capa 1
 62
   253
420
 11382194
100
AcDbHatch
 10
0.0
 20
0.0
 30
0.0
210
0.0
220
0.0
230
1.0
  2
SOLID
 70
     1
 71
     0
 91
        4
 92
        1
 93
       20
 72
     1
 10
5.541888275281317
 20
6.350910004641453
 11
5.180978978933325
 21
6.084150039224845
 72
     1
 10
5.180978978933325
 20
6.084150039224845
 11
5.541888275281317
 21
5.85352862844182
 72
     1
 10
5.541888275281317
 20
5.85352862844182
 11
5.541888275281317
 21
5.158831590609463
 72
     1
 10
5.541888275281317
 20
5.158831590609463
 11
4.97929945630082
 21
5.158831590609463
 72
     1
 10
4.97929945630082
 20
5.158831590609463
 11
4.97929945630082
 21
5.558980358178595
 72
     1
 10
4.97929945630082
 20
5.558980358178595
 11
4.759028545253733
 21
5.722919715107265
 72
     1
 10
4.759028545253733
 20
5.722919715107265
 11
4.544091634070564
 21
5.558980358178595
 72
     1
 10
4.544091634070564
 20
5.558980358178595
 11
4.544091634070564
 21
5.158831590609463
 72
     1
 10
4.544091634070564
 20
5.158831590609463
 11
3.981488703979316
 21
5.158831590609463
 72
     1
 10
3.981488703979316
 20
5.158831590609463
 11
3.981488703979316
 21
5.814620768323332
 72
     1
 10
3.981488703979316
 20
5.814620768323332
 11
4.334449917196747
 21
6.075820956104004
 72
     1
 10
4.334449917196747
 20
6.075820956104004
 11
3.981488703979316
 21
6.33980808825802
 72
     1
 10
3.981488703979316
 20
6.33980808825802
 11
3.981488703979316
 21
7.015038848809226
 72
     1
 10
3.981488703979316
 20
7.015038848809226
 11
4.544091634070564
 21
7.015038848809226
 72
     1
 10
4.544091634070564
 20
7.015038848809226
 11
4.544091634070564
 21
6.609340886937221
 72
     1
 10
4.544091634070564
 20
6.609340886937221
 11
4.761699072963379
 21
6.44261105785752
 72
     1
 10
4.761699072963379
 20
6.44261105785752
 11
4.97929945630082
 21
6.609340886937221
 72
     1
 10
4.97929945630082
 20
6.609340886937221
 11
4.97929945630082
 21
7.015038848809226
 72
     1
 10
4.97929945630082
 20
7.015038848809226
 11
5.541888275281317
 21
7.015038848809226
 72
     1
 10
5.541888275281317
 20
7.015038848809226
 11
5.541888275281317
 21
6.350910004641453
 97
        0
 92
        1
 93
       11
 72
     1
 10
6.33269961621715
 20
6.520419722539122
 11
6.33269961621715
 21
5.656230605697535
 72
     1
 10
6.33269961621715
 20
5.656230605697535
 11
6.767900382892031
 21
5.656230605697535
 72
     1
 10
6.767900382892031
 20
5.656230605697535
 11
6.767900382892031
 21
6.314789088896308
 72
     1
 10
6.767900382892031
 20
6.314789088896308
 11
7.049198320159968
 21
6.314789088896308
 72
     1
 10
7.049198320159968
 20
6.314789088896308
 11
7.330489201872528
 21
6.020240818633082
 72
     1
 10
7.330489201872528
 20
6.020240818633082
 11
7.330489201872528
 21
5.158831590609463
 72
     1
 10
7.330489201872528
 20
5.158831590609463
 11
5.77274957494711
 21
5.158831590609463
 72
     1
 10
5.77274957494711
 20
5.158831590609463
 11
5.770110797236653
 21
7.017808154294131
 72
     1
 10
5.770110797236653
 20
7.017808154294131
 11
7.330489201872528
 21
7.017808154294131
 72
     1
 10
7.330489201872528
 20
7.017808154294131
 11
7.330489201872528
 21
6.520419722539122
 72
     1
 10
7.330489201872528
 20
6.520419722539122
 11
6.33269961621715
 21
6.520419722539122
 97
        0
 92
        1
 93
       12
 72
     1
 10
8.102730321059905
 20
6.520419722539122
 11
8.102730321059905
 21
6.337021143884677
 72
     1
 10
8.102730321059905
 20
6.337021143884677
 11
8.882919523377842
 21
6.337021143884677
 72
     1
 10
8.882919523377842
 20
6.337021143884677
 11
8.882919523377842
 21
5.83962918435198
 72
     1
 10
8.882919523377842
 20
5.83962918435198
 11
8.102730321059905
 21
5.83962918435198
 72
     1
 10
8.102730321059905
 20
5.83962918435198
 11
8.102730321059905
 21
5.656230605697535
 72
     1
 10
8.102730321059905
 20
5.656230605697535
 11
9.100530490048346
 21
5.656230605697535
 72
     1
 10
9.100530490048346
 20
5.656230605697535
 11
9.100530490048346
 21
5.158831590609463
 72
     1
 10
9.100530490048346
 20
5.158831590609463
 11
7.540141502079408
 21
5.158831590609463
 72
     1
 10
7.540141502079408
 20
5.158831590609463
 11
7.540141502079408
 21
7.015038848809226
 72
     1
 10
7.540141502079408
 20
7.015038848809226
 11
9.100530490048346
 21
7.017808154294131
 72
     1
 10
9.100530490048346
 20
7.017808154294131
 11
9.100530490048346
 21
6.520419722539122
 72
     1
 10
9.100530490048346
 20
6.520419722539122
 11
8.102730321059905
 21
6.520419722539122
 97
        0
 92
        1
 93
       12
 72
     1
 10
11.42519134740797
 20
7.017808154294131
 11
11.42519134740797
 21
5.158831590609463
 72
     1
 10
11.42519134740797
 20
5.158831590609463
 11
10.86259900064979
 21
5.158831590609463
 72
     1
 10
10.86259900064979
 20
5.158831590609463
 11
10.86259900064979
 21
6.520419722539122
 72
     1
 10
10.86259900064979
 20
6.520419722539122
 11
10.65296081155366
 21
6.520419722539122
 72
     1
 10
10.65296081155366
 20
6.520419722539122
 11
10.65296081155366
 21
5.158831590609463
 72
     1
 10
10.65296081155366
 20
5.158831590609463
 11
10.09036846479547
 21
5.158831590609463
 72
     1
 10
10.09036846479547
 20
5.158831590609463
 11
10.09036846479547
 21
6.520419722539122
 72
     1
 10
10.09036846479547
 20
6.520419722539122
 11
9.878070331322762
 21
6.520419722539122
 72
     1
 10
9.878070331322762
 20
6.520419722539122
 11
9.878070331322762
 21
5.158831590609463
 72
     1
 10
9.878070331322762
 20
5.158831590609463
 11
9.315481512342267
 21
5.158831590609463
 72
     1
 10
9.315481512342267
 20
5.158831590609463
 11
9.315481512342267
 21
7.015038848809226
 72
     1
 10
9.315481512342267
 20
7.015038848809226
 11
11.42519134740797
 21
7.017808154294131
 97
        0
 75
     0
 76
     1
 98
        0
  0
POLYLINE
  5
88
330
1F
100
AcDbEntity
  8
Capa 1
 62
     9
420
 12764104
370
     9
100
AcDb2dPolyline
 66
     1
 10
0.0
 20
0.0
 30
0.0
  0
VERTEX
  5
89
330
88
100
AcDbEntity
  8
Capa 1
 62
     9
420
 12764104
370
     9
100
AcDbVertex
100
AcDb2dVertex
 10
3.981488703979316
 20
13.76060134338226
 30
0.0
  0
VERTEX
  5
8A
330
88
100
AcDbEntity
  8
Capa 1
 62
     9
420
 12764104
370
     9
100
AcDbVertex
100
AcDb2dVertex
 10
3.981488703979316
 20
12.27238010357216
 30
0.0
  0
VERTEX
  5
8B
330
88
100
AcDbEntity
  8
Capa 1
 62
     9
420
 12764104
370
     9
100
AcDbVertex
100
AcDb2dVertex
 10
3.981488703979316
 20
10.78416944709514
 30
0.0
  0
VERTEX
  5
8C
330
88
100
AcDbEntity
  8
Capa 1
 62
     9
420
 12764104
370
     9
100
AcDbVertex
100
AcDb2dVertex
 10
6.111141066314024
 20
11.63571853648142
 30
0.0
  0
VERTEX
  5
8D
330
88
100
AcDbEntity
  8
Capa 1
 62
     9
420
 12764104
370
     9
100
AcDbVertex
100
AcDb2dVertex
 10
6.111141066314024
 20
12.27238010357216
 30
0.0
  0
VERTEX
  5
8E
330
88
100
AcDbEntity
  8
Capa 1
 62
     9
420
 12764104
370
     9
100
AcDbVertex
100
AcDb2dVertex
 10
6.111141066314024
 20
12.90903814288522
 30
0.0
  0
VERTEX
  5
8F
330
88
100
AcDbEntity
  8
Capa 1
 62
     9
420
 12764104
370
     9
100
AcDbVertex
100
AcDb2dVertex
 10
3.981488703979316
 20
13.76060134338226
 30
0.0
  0
SEQEND
  5
91
330
88
100
AcDbEntity
  8
Capa 1
 62
     9
420
 12764104
370
     9
  0
HATCH
  5
90
330
1F
100
AcDbEntity
  8
Capa 1
 62
     9
420
 12764104
100
AcDbHatch
 10
0.0
 20
0.0
 30
0.0
210
0.0
220
0.0
230
1.0
  2
SOLID
 70
     1
 71
     0
 91
        1
 92
        1
 93
        6
 72
     1
 10
3.981488703979316
 20
13.76060134338226
 11
3.981488703979316
 21
12.27238010357216
 72
     1
 10
3.981488703979316
 20
12.27238010357216
 11
3.981488703979316
 21
10.78416944709514
 72
     1
 10
3.981488703979316
 20
10.78416944709514
 11
6.111141066314024
 21
11.63571853648142
 72
     1
 10
6.111141066314024
 20
11.63571853648142
 11
6.111141066314024
 21
12.27238010357216
 72
     1
 10
6.111141066314024
 20
12.27238010357216
 11
6.111141066314024
 21
12.90903814288522
 72
     1
 10
6.111141066314024
 20
12.90903814288522
 11
3.981488703979316
 21
13.76060134338226
 97
        0
 75
     0
 76
     1
 98
        0
  0
POLYLINE
  5
92
330
1F
100
AcDbEntity
  8
Capa 1
 62
     9
420
 12764104
370
     9
100
AcDb2dPolyline
 66
     1
 10
0.0
 20
0.0
 30
0.0
  0
VERTEX
  5
93
330
92
100
AcDbEntity
  8
Capa 1
 62
     9
420
 12764104
370
     9
100
AcDbVertex
100
AcDb2dVertex
 10
7.703340025693644
 20
14.0515089470717
 30
0.0
  0
VERTEX
  5
94
330
92
100
AcDbEntity
  8
Capa 1
 62
     9
420
 12764104
370
     9
100
AcDbVertex
100
AcDb2dVertex
 10
7.703340025693644
 20
16.43116080302838
 30
0.0
  0
VERTEX
  5
95
330
92
100
AcDbEntity
  8
Capa 1
 62
     9
420
 12764104
370
     9
100
AcDbVertex
100
AcDb2dVertex
 10
5.842409073169948
 20
15.39146121844222
 30
0.0
  0
VERTEX
  5
96
330
92
100
AcDbEntity
  8
Capa 1
 62
     9
420
 12764104
370
     9
100
AcDbVertex
100
AcDb2dVertex
 10
4.510560107148247
 20
14.64736823742561
 30
0.0
  0
VERTEX
  5
97
330
92
100
AcDbEntity
  8
Capa 1
 62
     9
420
 12764104
370
     9
100
AcDbVertex
100
AcDb2dVertex
 10
6.33745858831796
 20
13.28840829987335
 30
0.0
  0
VERTEX
  5
98
330
92
100
AcDbEntity
  8
Capa 1
 62
     9
420
 12764104
370
     9
100
AcDbVertex
100
AcDb2dVertex
 10
7.703340025693644
 20
14.0515089470717
 30
0.0
  0
SEQEND
  5
9A
330
92
100
AcDbEntity
  8
Capa 1
 62
     9
420
 12764104
370
     9
  0
HATCH
  5
99
330
1F
100
AcDbEntity
  8
Capa 1
 62
     9
420
 12764104
100
AcDbHatch
 10
0.0
 20
0.0
 30
0.0
210
0.0
220
0.0
230
1.0
  2
SOLID
 70
     1
 71
     0
 91
        1
 92
        1
 93
        5
 72
     1
 10
7.703340025693644
 20
14.0515089470717
 11
7.703340025693644
 21
16.43116080302838
 72
     1
 10
7.703340025693644
 20
16.43116080302838
 11
5.842409073169948
 21
15.39146121844222
 72
     1
 10
5.842409073169948
 20
15.39146121844222
 11
4.510560107148247
 21
14.64736823742561
 72
     1
 10
4.510560107148247
 20
14.64736823742561
 11
6.33745858831796
 21
13.28840829987335
 72
     1
 10
6.33745858831796
 20
13.28840829987335
 11
7.703340025693644
 21
14.0515089470717
 97
        0
 75
     0
 76
     1
 98
        0
  0
POLYLINE
  5
9B
330
1F
100
AcDbEntity
  8
Capa 1
 62
     9
420
 12764104
370
     9
100
AcDb2dPolyline
 66
     1
 10
0.0
 20
0.0
 30
0.0
  0
VERTEX
  5
9C
330
9B
100
AcDbEntity
  8
Capa 1
 62
     9
420
 12764104
370
     9
100
AcDbVertex
100
AcDb2dVertex
 10
7.703340025693644
 20
8.113599404115945
 30
0.0
  0
VERTEX
  5
9D
330
9B
100
AcDbEntity
  8
Capa 1
 62
     9
420
 12764104
370
     9
100
AcDbVertex
100
AcDb2dVertex
 10
7.703340025693644
 20
10.49325831562801
 30
0.0
  0
VERTEX
  5
9E
330
9B
100
AcDbEntity
  8
Capa 1
 62
     9
420
 12764104
370
     9
100
AcDbVertex
100
AcDb2dVertex
 10
6.907251129336897
 20
10.93804052650289
 30
0.0
  0
VERTEX
  5
9F
330
9B
100
AcDbEntity
  8
Capa 1
 62
     9
420
 12764104
370
     9
100
AcDbVertex
100
AcDb2dVertex
 10
6.33745858831796
 20
11.25635896282636
 30
0.0
  0
VERTEX
  5
A0
330
9B
100
AcDbEntity
  8
Capa 1
 62
     9
420
 12764104
370
     9
100
AcDbVertex
100
AcDb2dVertex
 10
4.510560107148247
 20
9.89739902527409
 30
0.0
  0
VERTEX
  5
A1
330
9B
100
AcDbEntity
  8
Capa 1
 62
     9
420
 12764104
370
     9
100
AcDbVertex
100
AcDb2dVertex
 10
5.842409073169948
 20
9.153309572035173
 30
0.0
  0
VERTEX
  5
A2
330
9B
100
AcDbEntity
  8
Capa 1
 62
     9
420
 12764104
370
     9
100
AcDbVertex
100
AcDb2dVertex
 10
7.703340025693644
 20
8.113599404115945
 30
0.0
  0
SEQEND
  5
A4
330
9B
100
AcDbEntity
  8
Capa 1
 62
     9
420
 12764104
370
     9
  0
HATCH
  5
A3
330
1F
100
AcDbEntity
  8
Capa 1
 62
     9
420
 12764104
100
AcDbHatch
 10
0.0
 20
0.0
 30
0.0
210
0.0
220
0.0
230
1.0
  2
SOLID
 70
     1
 71
     0
 91
        1
 92
        1
 93
        6
 72
     1
 10
7.703340025693644
 20
8.113599404115945
 11
7.703340025693644
 21
10.49325831562801
 72
     1
 10
7.703340025693644
 20
10.49325831562801
 11
6.907251129336897
 21
10.93804052650289
 72
     1
 10
6.907251129336897
 20
10.93804052650289
 11
6.33745858831796
 21
11.25635896282636
 72
     1
 10
6.33745858831796
 20
11.25635896282636
 11
4.510560107148247
 21
9.89739902527409
 72
     1
 10
4.510560107148247
 20
9.89739902527409
 11
5.842409073169948
 21
9.153309572035173
 72
     1
 10
5.842409073169948
 20
9.153309572035173
 11
7.703340025693644
 21
8.113599404115945
 97
        0
 75
     0
 76
     1
 98
        0
  0
POLYLINE
  5
A5
330
1F
100
AcDbEntity
  8
Capa 1
 62
   253
420
 11382194
370
     9
100
AcDb2dPolyline
 66
     1
 10
0.0
 20
0.0
 30
0.0
  0
VERTEX
  5
A6
330
A5
100
AcDbEntity
  8
Capa 1
 62
   253
420
 11382194
370
     9
100
AcDbVertex
100
AcDb2dVertex
 10
11.42519134740797
 20
13.76060134338226
 30
0.0
  0
VERTEX
  5
A7
330
A5
100
AcDbEntity
  8
Capa 1
 62
   253
420
 11382194
370
     9
100
AcDbVertex
100
AcDb2dVertex
 10
11.42519134740797
 20
12.27238010357216
 30
0.0
  0
VERTEX
  5
A8
330
A5
100
AcDbEntity
  8
Capa 1
 62
   253
420
 11382194
370
     9
100
AcDbVertex
100
AcDb2dVertex
 10
11.42519134740797
 20
10.78416944709514
 30
0.0
  0
VERTEX
  5
A9
330
A5
100
AcDbEntity
  8
Capa 1
 62
   253
420
 11382194
370
     9
100
AcDbVertex
100
AcDb2dVertex
 10
9.295549568406328
 20
11.63571853648142
 30
0.0
  0
VERTEX
  5
AA
330
A5
100
AcDbEntity
  8
Capa 1
 62
   253
420
 11382194
370
     9
100
AcDbVertex
100
AcDb2dVertex
 10
9.295549568406328
 20
12.27238010357216
 30
0.0
  0
VERTEX
  5
AB
330
A5
100
AcDbEntity
  8
Capa 1
 62
   253
420
 11382194
370
     9
100
AcDbVertex
100
AcDb2dVertex
 10
9.295549568406328
 20
12.90903814288522
 30
0.0
  0
VERTEX
  5
AC
330
A5
100
AcDbEntity
  8
Capa 1
 62
   253
420
 11382194
370
     9
100
AcDbVertex
100
AcDb2dVertex
 10
11.42519134740797
 20
13.76060134338226
 30
0.0
  0
SEQEND
  5
AE
330
A5
100
AcDbEntity
  8
Capa 1
 62
   253
420
 11382194
370
     9
  0
HATCH
  5
AD
330
1F
100
AcDbEntity
  8
Capa 1
 62
   253
420
 11382194
100
AcDbHatch
 10
0.0
 20
0.0
 30
0.0
210
0.0
220
0.0
230
1.0
  2
SOLID
 70
     1
 71
     0
 91
        1
 92
        1
 93
        6
 72
     1
 10
11.42519134740797
 20
13.76060134338226
 11
11.42519134740797
 21
12.27238010357216
 72
     1
 10
11.42519134740797
 20
12.27238010357216
 11
11.42519134740797
 21
10.78416944709514
 72
     1
 10
11.42519134740797
 20
10.78416944709514
 11
9.295549568406328
 21
11.63571853648142
 72
     1
 10
9.295549568406328
 20
11.63571853648142
 11
9.295549568406328
 21
12.27238010357216
 72
     1
 10
9.295549568406328
 20
12.27238010357216
 11
9.295549568406328
 21
12.90903814288522
 72
     1
 10
9.295549568406328
 20
12.90903814288522
 11
11.42519134740797
 21
13.76060134338226
 97
        0
 75
     0
 76
     1
 98
        0
  0
POLYLINE
  5
AF
330
1F
100
AcDbEntity
  8
Capa 1
 62
   253
420
 11382194
370
     9
100
AcDb2dPolyline
 66
     1
 10
0.0
 20
0.0
 30
0.0
  0
VERTEX
  5
B0
330
AF
100
AcDbEntity
  8
Capa 1
 62
   253
420
 11382194
370
     9
100
AcDbVertex
100
AcDb2dVertex
 10
7.703340025693644
 20
8.113599404115945
 30
0.0
  0
VERTEX
  5
B1
330
AF
100
AcDbEntity
  8
Capa 1
 62
   253
420
 11382194
370
     9
100
AcDbVertex
100
AcDb2dVertex
 10
7.703340025693644
 20
10.49325831562801
 30
0.0
  0
VERTEX
  5
B2
330
AF
100
AcDbEntity
  8
Capa 1
 62
   253
420
 11382194
370
     9
100
AcDbVertex
100
AcDb2dVertex
 10
8.499450088716518
 20
10.93804052650289
 30
0.0
  0
VERTEX
  5
B3
330
AF
100
AcDbEntity
  8
Capa 1
 62
   253
420
 11382194
370
     9
100
AcDbVertex
100
AcDb2dVertex
 10
9.069210879736264
 20
11.25636954615942
 30
0.0
  0
VERTEX
  5
B4
330
AF
100
AcDbEntity
  8
Capa 1
 62
   253
420
 11382194
370
     9
100
AcDbVertex
100
AcDb2dVertex
 10
10.89611994423904
 20
9.897409608607154
 30
0.0
  0
VERTEX
  5
B5
330
AF
100
AcDbEntity
  8
Capa 1
 62
   253
420
 11382194
370
     9
100
AcDbVertex
100
AcDb2dVertex
 10
9.56427097821734
 20
9.15329898870211
 30
0.0
  0
VERTEX
  5
B6
330
AF
100
AcDbEntity
  8
Capa 1
 62
   253
420
 11382194
370
     9
100
AcDbVertex
100
AcDb2dVertex
 10
7.703340025693644
 20
8.113599404115945
 30
0.0
  0
SEQEND
  5
B8
330
AF
100
AcDbEntity
  8
Capa 1
 62
   253
420
 11382194
370
     9
  0
HATCH
  5
B7
330
1F
100
AcDbEntity
  8
Capa 1
 62
   253
420
 11382194
100
AcDbHatch
 10
0.0
 20
0.0
 30
0.0
210
0.0
220
0.0
230
1.0
  2
SOLID
 70
     1
 71
     0
 91
        1
 92
        1
 93
        6
 72
     1
 10
7.703340025693644
 20
8.113599404115945
 11
7.703340025693644
 21
10.49325831562801
 72
     1
 10
7.703340025693644
 20
10.49325831562801
 11
8.499450088716518
 21
10.93804052650289
 72
     1
 10
8.499450088716518
 20
10.93804052650289
 11
9.069210879736264
 21
11.25636954615942
 72
     1
 10
9.069210879736264
 20
11.25636954615942
 11
10.89611994423904
 21
9.897409608607154
 72
     1
 10
10.89611994423904
 20
9.897409608607154
 11
9.56427097821734
 21
9.15329898870211
 72
     1
 10
9.56427097821734
 20
9.15329898870211
 11
7.703340025693644
 21
8.113599404115945
 97
        0
 75
     0
 76
     1
 98
        0
  0
POLYLINE
  5
B9
330
1F
100
AcDbEntity
  8
Capa 1
 62
   253
420
 11382194
370
     9
100
AcDb2dPolyline
 66
     1
 10
0.0
 20
0.0
 30
0.0
  0
VERTEX
  5
BA
330
B9
100
AcDbEntity
  8
Capa 1
 62
   253
420
 11382194
370
     9
100
AcDbVertex
100
AcDb2dVertex
 10
7.703340025693644
 20
14.0515089470717
 30
0.0
  0
VERTEX
  5
BB
330
B9
100
AcDbEntity
  8
Capa 1
 62
   253
420
 11382194
370
     9
100
AcDbVertex
100
AcDb2dVertex
 10
7.703340025693644
 20
16.43116080302838
 30
0.0
  0
VERTEX
  5
BC
330
B9
100
AcDbEntity
  8
Capa 1
 62
   253
420
 11382194
370
     9
100
AcDbVertex
100
AcDb2dVertex
 10
9.56427097821734
 20
15.3914682739976
 30
0.0
  0
VERTEX
  5
BD
330
B9
100
AcDbEntity
  8
Capa 1
 62
   253
420
 11382194
370
     9
100
AcDbVertex
100
AcDb2dVertex
 10
10.89611994423904
 20
14.64736118187024
 30
0.0
  0
VERTEX
  5
BE
330
B9
100
AcDbEntity
  8
Capa 1
 62
   253
420
 11382194
370
     9
100
AcDbVertex
100
AcDb2dVertex
 10
9.069210879736264
 20
13.28840124431797
 30
0.0
  0
VERTEX
  5
BF
330
B9
100
AcDbEntity
  8
Capa 1
 62
   253
420
 11382194
370
     9
100
AcDbVertex
100
AcDb2dVertex
 10
7.703340025693644
 20
14.0515089470717
 30
0.0
  0
SEQEND
  5
C1
330
B9
100
AcDbEntity
  8
Capa 1
 62
   253
420
 11382194
370
     9
  0
HATCH
  5
C0
330
1F
100
AcDbEntity
  8
Capa 1
 62
   253
420
 11382194
100
AcDbHatch
 10
0.0
 20
0.0
 30
0.0
210
0.0
220
0.0
230
1.0
  2
SOLID
 70
     1
 71
     0
 91
        1
 92
        1
 93
        5
 72
     1
 10
7.703340025693644
 20
14.0515089470717
 11
7.703340025693644
 21
16.43116080302838
 72
     1
 10
7.703340025693644
 20
16.43116080302838
 11
9.56427097821734
 21
15.3914682739976
 72
     1
 10
9.56427097821734
 20
15.3914682739976
 11
10.89611994423904
 21
14.64736118187024
 72
     1
 10
10.89611994423904
 20
14.64736118187024
 11
9.069210879736264
 21
13.28840124431797
 72
     1
 10
9.069210879736264
 20
13.28840124431797
 11
7.703340025693644
 21
14.0515089470717
 97
        0
 75
     0
 76
     1
 98
        0
  0
POLYLINE
  5
C2
330
1F
100
AcDbEntity
  8
Capa 1
 62
   179
420
  2103317
370
     9
100
AcDb2dPolyline
 66
     1
 10
0.0
 20
0.0
 30
0.0
  0
VERTEX
  5
C3
330
C2
100
AcDbEntity
  8
Capa 1
 62
   179
420
  2103317
370
     9
100
AcDbVertex
100
AcDb2dVertex
 10
18.07521103886295
 20
6.350910004641453
 30
0.0
  0
VERTEX
  5
C4
330
C2
100
AcDbEntity
  8
Capa 1
 62
   179
420
  2103317
370
     9
100
AcDbVertex
100
AcDb2dVertex
 10
17.71429821473727
 20
6.084150039224845
 30
0.0
  0
VERTEX
  5
C5
330
C2
100
AcDbEntity
  8
Capa 1
 62
   179
420
  2103317
370
     9
100
AcDbVertex
100
AcDb2dVertex
 10
18.07521103886295
 20
5.85352862844182
 30
0.0
  0
VERTEX
  5
C6
330
C2
100
AcDbEntity
  8
Capa 1
 62
   179
420
  2103317
370
     9
100
AcDbVertex
100
AcDb2dVertex
 10
18.07521103886295
 20
5.158831590609463
 30
0.0
  0
VERTEX
  5
C7
330
C2
100
AcDbEntity
  8
Capa 1
 62
   179
420
  2103317
370
     9
100
AcDbVertex
100
AcDb2dVertex
 10
17.51261869210476
 20
5.158831590609463
 30
0.0
  0
VERTEX
  5
C8
330
C2
100
AcDbEntity
  8
Capa 1
 62
   179
420
  2103317
370
     9
100
AcDbVertex
100
AcDb2dVertex
 10
17.51261869210476
 20
5.558980358178595
 30
0.0
  0
VERTEX
  5
C9
330
C2
100
AcDbEntity
  8
Capa 1
 62
   179
420
  2103317
370
     9
100
AcDbVertex
100
AcDb2dVertex
 10
17.29235130883536
 20
5.722919715107265
 30
0.0
  0
VERTEX
  5
CA
330
C2
100
AcDbEntity
  8
Capa 1
 62
   179
420
  2103317
370
     9
100
AcDbVertex
100
AcDb2dVertex
 10
17.07741086987451
 20
5.558980358178595
 30
0.0
  0
VERTEX
  5
CB
330
C2
100
AcDbEntity
  8
Capa 1
 62
   179
420
  2103317
370
     9
100
AcDbVertex
100
AcDb2dVertex
 10
17.07741086987451
 20
5.158831590609463
 30
0.0
  0
VERTEX
  5
CC
330
C2
100
AcDbEntity
  8
Capa 1
 62
   179
420
  2103317
370
     9
100
AcDbVertex
100
AcDb2dVertex
 10
16.51480793978326
 20
5.158831590609463
 30
0.0
  0
VERTEX
  5
CD
330
C2
100
AcDbEntity
  8
Capa 1
 62
   179
420
  2103317
370
     9
100
AcDbVertex
100
AcDb2dVertex
 10
16.51480793978326
 20
5.814620768323332
 30
0.0
  0
VERTEX
  5
CE
330
C2
100
AcDbEntity
  8
Capa 1
 62
   179
420
  2103317
370
     9
100
AcDbVertex
100
AcDb2dVertex
 10
16.86776915300069
 20
6.075820956104004
 30
0.0
  0
VERTEX
  5
CF
330
C2
100
AcDbEntity
  8
Capa 1
 62
   179
420
  2103317
370
     9
100
AcDbVertex
100
AcDb2dVertex
 10
16.51480793978326
 20
6.33980808825802
 30
0.0
  0
VERTEX
  5
D0
330
C2
100
AcDbEntity
  8
Capa 1
 62
   179
420
  2103317
370
     9
100
AcDbVertex
100
AcDb2dVertex
 10
16.51480793978326
 20
7.015038848809226
 30
0.0
  0
VERTEX
  5
D1
330
C2
100
AcDbEntity
  8
Capa 1
 62
   179
420
  2103317
370
     9
100
AcDbVertex
100
AcDb2dVertex
 10
17.07741086987451
 20
7.015038848809226
 30
0.0
  0
VERTEX
  5
D2
330
C2
100
AcDbEntity
  8
Capa 1
 62
   179
420
  2103317
370
     9
100
AcDbVertex
100
AcDb2dVertex
 10
17.07741086987451
 20
6.609340886937221
 30
0.0
  0
VERTEX
  5
D3
330
C2
100
AcDbEntity
  8
Capa 1
 62
   179
420
  2103317
370
     9
100
AcDbVertex
100
AcDb2dVertex
 10
17.29501830876732
 20
6.44261105785752
 30
0.0
  0
VERTEX
  5
D4
330
C2
100
AcDbEntity
  8
Capa 1
 62
   179
420
  2103317
370
     9
100
AcDbVertex
100
AcDb2dVertex
 10
17.51261869210476
 20
6.609340886937221
 30
0.0
  0
VERTEX
  5
D5
330
C2
100
AcDbEntity
  8
Capa 1
 62
   179
420
  2103317
370
     9
100
AcDbVertex
100
AcDb2dVertex
 10
17.51261869210476
 20
7.015038848809226
 30
0.0
  0
VERTEX
  5
D6
330
C2
100
AcDbEntity
  8
Capa 1
 62
   179
420
  2103317
370
     9
100
AcDbVertex
100
AcDb2dVertex
 10
18.07521103886295
 20
7.015038848809226
 30
0.0
  0
VERTEX
  5
D7
330
C2
100
AcDbEntity
  8
Capa 1
 62
   179
420
  2103317
370
     9
100
AcDbVertex
100
AcDb2dVertex
 10
18.07521103886295
 20
6.350910004641453
 30
0.0
  0
VERTEX
  5
D8
330
C2
100
AcDbEntity
  8
Capa 1
 62
   179
420
  2103317
370
     9
100
AcDbVertex
100
AcDb2dVertex
 10
18.07521103886295
 20
6.350910004641453
 30
0.0
  0
SEQEND
  5
D9
330
C2
100
AcDbEntity
  8
Capa 1
 62
   179
420
  2103317
370
     9
  0
POLYLINE
  5
DA
330
1F
100
AcDbEntity
  8
Capa 1
 62
   179
420
  2103317
370
     9
100
AcDb2dPolyline
 66
     1
 10
0.0
 20
0.0
 30
0.0
  0
VERTEX
  5
DB
330
DA
100
AcDbEntity
  8
Capa 1
 62
   179
420
  2103317
370
     9
100
AcDbVertex
100
AcDb2dVertex
 10
18.86601885202109
 20
6.520419722539122
 30
0.0
  0
VERTEX
  5
DC
330
DA
100
AcDbEntity
  8
Capa 1
 62
   179
420
  2103317
370
     9
100
AcDbVertex
100
AcDb2dVertex
 10
18.86601885202109
 20
5.656230605697535
 30
0.0
  0
VERTEX
  5
DD
330
DA
100
AcDbEntity
  8
Capa 1
 62
   179
420
  2103317
370
     9
100
AcDbVertex
100
AcDb2dVertex
 10
19.30121961869597
 20
5.656230605697535
 30
0.0
  0
VERTEX
  5
DE
330
DA
100
AcDbEntity
  8
Capa 1
 62
   179
420
  2103317
370
     9
100
AcDbVertex
100
AcDb2dVertex
 10
19.30121961869597
 20
6.314789088896308
 30
0.0
  0
VERTEX
  5
DF
330
DA
100
AcDbEntity
  8
Capa 1
 62
   179
420
  2103317
370
     9
100
AcDbVertex
100
AcDb2dVertex
 10
19.5825210837416
 20
6.314789088896308
 30
0.0
  0
VERTEX
  5
E0
330
DA
100
AcDbEntity
  8
Capa 1
 62
   179
420
  2103317
370
     9
100
AcDbVertex
100
AcDb2dVertex
 10
19.86380843767647
 20
6.020240818633082
 30
0.0
  0
VERTEX
  5
E1
330
DA
100
AcDbEntity
  8
Capa 1
 62
   179
420
  2103317
370
     9
100
AcDbVertex
100
AcDb2dVertex
 10
19.86380843767647
 20
5.158831590609463
 30
0.0
  0
VERTEX
  5
E2
330
DA
100
AcDbEntity
  8
Capa 1
 62
   179
420
  2103317
370
     9
100
AcDbVertex
100
AcDb2dVertex
 10
18.30606881075105
 20
5.158831590609463
 30
0.0
  0
VERTEX
  5
E3
330
DA
100
AcDbEntity
  8
Capa 1
 62
   179
420
  2103317
370
     9
100
AcDbVertex
100
AcDb2dVertex
 10
18.30343003304059
 20
7.017808154294131
 30
0.0
  0
VERTEX
  5
E4
330
DA
100
AcDbEntity
  8
Capa 1
 62
   179
420
  2103317
370
     9
100
AcDbVertex
100
AcDb2dVertex
 10
19.86380843767647
 20
7.017808154294131
 30
0.0
  0
VERTEX
  5
E5
330
DA
100
AcDbEntity
  8
Capa 1
 62
   179
420
  2103317
370
     9
100
AcDbVertex
100
AcDb2dVertex
 10
19.86380843767647
 20
6.520419722539122
 30
0.0
  0
VERTEX
  5
E6
330
DA
100
AcDbEntity
  8
Capa 1
 62
   179
420
  2103317
370
     9
100
AcDbVertex
100
AcDb2dVertex
 10
18.86601885202109
 20
6.520419722539122
 30
0.0
  0
VERTEX
  5
E7
330
DA
100
AcDbEntity
  8
Capa 1
 62
   179
420
  2103317
370
     9
100
AcDbVertex
100
AcDb2dVertex
 10
18.86601885202109
 20
6.520419722539122
 30
0.0
  0
SEQEND
  5
E8
330
DA
100
AcDbEntity
  8
Capa 1
 62
   179
420
  2103317
370
     9
  0
POLYLINE
  5
E9
330
1F
100
AcDbEntity
  8
Capa 1
 62
   179
420
  2103317
370
     9
100
AcDb2dPolyline
 66
     1
 10
0.0
 20
0.0
 30
0.0
  0
VERTEX
  5
EA
330
E9
100
AcDbEntity
  8
Capa 1
 62
   179
420
  2103317
370
     9
100
AcDbVertex
100
AcDb2dVertex
 10
20.63604955686385
 20
6.520419722539122
 30
0.0
  0
VERTEX
  5
EB
330
E9
100
AcDbEntity
  8
Capa 1
 62
   179
420
  2103317
370
     9
100
AcDbVertex
100
AcDb2dVertex
 10
20.63604955686385
 20
6.337021143884677
 30
0.0
  0
VERTEX
  5
EC
330
E9
100
AcDbEntity
  8
Capa 1
 62
   179
420
  2103317
370
     9
100
AcDbVertex
100
AcDb2dVertex
 10
21.41623875918178
 20
6.337021143884677
 30
0.0
  0
VERTEX
  5
ED
330
E9
100
AcDbEntity
  8
Capa 1
 62
   179
420
  2103317
370
     9
100
AcDbVertex
100
AcDb2dVertex
 10
21.41623875918178
 20
5.83962918435198
 30
0.0
  0
VERTEX
  5
EE
330
E9
100
AcDbEntity
  8
Capa 1
 62
   179
420
  2103317
370
     9
100
AcDbVertex
100
AcDb2dVertex
 10
20.63604955686385
 20
5.83962918435198
 30
0.0
  0
VERTEX
  5
EF
330
E9
100
AcDbEntity
  8
Capa 1
 62
   179
420
  2103317
370
     9
100
AcDbVertex
100
AcDb2dVertex
 10
20.63604955686385
 20
5.656230605697535
 30
0.0
  0
VERTEX
  5
F0
330
E9
100
AcDbEntity
  8
Capa 1
 62
   179
420
  2103317
370
     9
100
AcDbVertex
100
AcDb2dVertex
 10
21.63384972585229
 20
5.656230605697535
 30
0.0
  0
VERTEX
  5
F1
330
E9
100
AcDbEntity
  8
Capa 1
 62
   179
420
  2103317
370
     9
100
AcDbVertex
100
AcDb2dVertex
 10
21.63384972585229
 20
5.158831590609463
 30
0.0
  0
VERTEX
  5
F2
330
E9
100
AcDbEntity
  8
Capa 1
 62
   179
420
  2103317
370
     9
100
AcDbVertex
100
AcDb2dVertex
 10
20.07346073788335
 20
5.158831590609463
 30
0.0
  0
VERTEX
  5
F3
330
E9
100
AcDbEntity
  8
Capa 1
 62
   179
420
  2103317
370
     9
100
AcDbVertex
100
AcDb2dVertex
 10
20.07346073788335
 20
7.015038848809226
 30
0.0
  0
VERTEX
  5
F4
330
E9
100
AcDbEntity
  8
Capa 1
 62
   179
420
  2103317
370
     9
100
AcDbVertex
100
AcDb2dVertex
 10
21.63384972585229
 20
7.017808154294131
 30
0.0
  0
VERTEX
  5
F5
330
E9
100
AcDbEntity
  8
Capa 1
 62
   179
420
  2103317
370
     9
100
AcDbVertex
100
AcDb2dVertex
 10
21.63384972585229
 20
6.520419722539122
 30
0.0
  0
VERTEX
  5
F6
330
E9
100
AcDbEntity
  8
Capa 1
 62
   179
420
  2103317
370
     9
100
AcDbVertex
100
AcDb2dVertex
 10
20.63604955686385
 20
6.520419722539122
 30
0.0
  0
VERTEX
  5
F7
330
E9
100
AcDbEntity
  8
Capa 1
 62
   179
420
  2103317
370
     9
100
AcDbVertex
100
AcDb2dVertex
 10
20.63604955686385
 20
6.520419722539122
 30
0.0
  0
SEQEND
  5
F8
330
E9
100
AcDbEntity
  8
Capa 1
 62
   179
420
  2103317
370
     9
  0
POLYLINE
  5
F9
330
1F
100
AcDbEntity
  8
Capa 1
 62
   179
420
  2103317
370
     9
100
AcDb2dPolyline
 66
     1
 10
0.0
 20
0.0
 30
0.0
  0
VERTEX
  5
FA
330
F9
100
AcDbEntity
  8
Capa 1
 62
   179
420
  2103317
370
     9
100
AcDbVertex
100
AcDb2dVertex
 10
23.95851058321191
 20
7.017808154294131
 30
0.0
  0
VERTEX
  5
FB
330
F9
100
AcDbEntity
  8
Capa 1
 62
   179
420
  2103317
370
     9
100
AcDbVertex
100
AcDb2dVertex
 10
23.95851058321191
 20
5.158831590609463
 30
0.0
  0
VERTEX
  5
FC
330
F9
100
AcDbEntity
  8
Capa 1
 62
   179
420
  2103317
370
     9
100
AcDbVertex
100
AcDb2dVertex
 10
23.39591823645373
 20
5.158831590609463
 30
0.0
  0
VERTEX
  5
FD
330
F9
100
AcDbEntity
  8
Capa 1
 62
   179
420
  2103317
370
     9
100
AcDbVertex
100
AcDb2dVertex
 10
23.39591823645373
 20
6.520419722539122
 30
0.0
  0
VERTEX
  5
FE
330
F9
100
AcDbEntity
  8
Capa 1
 62
   179
420
  2103317
370
     9
100
AcDbVertex
100
AcDb2dVertex
 10
23.1862800473576
 20
6.520419722539122
 30
0.0
  0
VERTEX
  5
FF
330
F9
100
AcDbEntity
  8
Capa 1
 62
   179
420
  2103317
370
     9
100
AcDbVertex
100
AcDb2dVertex
 10
23.1862800473576
 20
5.158831590609463
 30
0.0
  0
VERTEX
  5
100
330
F9
100
AcDbEntity
  8
Capa 1
 62
   179
420
  2103317
370
     9
100
AcDbVertex
100
AcDb2dVertex
 10
22.62368770059942
 20
5.158831590609463
 30
0.0
  0
VERTEX
  5
101
330
F9
100
AcDbEntity
  8
Capa 1
 62
   179
420
  2103317
370
     9
100
AcDbVertex
100
AcDb2dVertex
 10
22.62368770059942
 20
6.520419722539122
 30
0.0
  0
VERTEX
  5
102
330
F9
100
AcDbEntity
  8
Capa 1
 62
   179
420
  2103317
370
     9
100
AcDbVertex
100
AcDb2dVertex
 10
22.4113895671267
 20
6.520419722539122
 30
0.0
  0
VERTEX
  5
103
330
F9
100
AcDbEntity
  8
Capa 1
 62
   179
420
  2103317
370
     9
100
AcDbVertex
100
AcDb2dVertex
 10
22.4113895671267
 20
5.158831590609463
 30
0.0
  0
VERTEX
  5
104
330
F9
100
AcDbEntity
  8
Capa 1
 62
   179
420
  2103317
370
     9
100
AcDbVertex
100
AcDb2dVertex
 10
21.84880074814621
 20
5.158831590609463
 30
0.0
  0
VERTEX
  5
105
330
F9
100
AcDbEntity
  8
Capa 1
 62
   179
420
  2103317
370
     9
100
AcDbVertex
100
AcDb2dVertex
 10
21.84880074814621
 20
7.015038848809226
 30
0.0
  0
VERTEX
  5
106
330
F9
100
AcDbEntity
  8
Capa 1
 62
   179
420
  2103317
370
     9
100
AcDbVertex
100
AcDb2dVertex
 10
23.95851058321191
 20
7.017808154294131
 30
0.0
  0
SEQEND
  5
107
330
F9
100
AcDbEntity
  8
Capa 1
 62
   179
420
  2103317
370
     9
  0
HATCH
  5
108
330
1F
100
AcDbEntity
  8
Capa 1
 62
   178
420
   395264
100
AcDbHatch
 10
0.0
 20
0.0
 30
0.0
210
0.0
220
0.0
230
1.0
  2
SOLID
 70
     1
 71
     0
 91
        4
 92
        1
 93
       20
 72
     1
 10
18.07521103886295
 20
6.350910004641453
 11
17.71429821473727
 21
6.084150039224845
 72
     1
 10
17.71429821473727
 20
6.084150039224845
 11
18.07521103886295
 21
5.85352862844182
 72
     1
 10
18.07521103886295
 20
5.85352862844182
 11
18.07521103886295
 21
5.158831590609463
 72
     1
 10
18.07521103886295
 20
5.158831590609463
 11
17.51261869210476
 21
5.158831590609463
 72
     1
 10
17.51261869210476
 20
5.158831590609463
 11
17.51261869210476
 21
5.558980358178595
 72
     1
 10
17.51261869210476
 20
5.558980358178595
 11
17.29235130883536
 21
5.722919715107265
 72
     1
 10
17.29235130883536
 20
5.722919715107265
 11
17.07741086987451
 21
5.558980358178595
 72
     1
 10
17.07741086987451
 20
5.558980358178595
 11
17.07741086987451
 21
5.158831590609463
 72
     1
 10
17.07741086987451
 20
5.158831590609463
 11
16.51480793978326
 21
5.158831590609463
 72
     1
 10
16.51480793978326
 20
5.158831590609463
 11
16.51480793978326
 21
5.814620768323332
 72
     1
 10
16.51480793978326
 20
5.814620768323332
 11
16.86776915300069
 21
6.075820956104004
 72
     1
 10
16.86776915300069
 20
6.075820956104004
 11
16.51480793978326
 21
6.33980808825802
 72
     1
 10
16.51480793978326
 20
6.33980808825802
 11
16.51480793978326
 21
7.015038848809226
 72
     1
 10
16.51480793978326
 20
7.015038848809226
 11
17.07741086987451
 21
7.015038848809226
 72
     1
 10
17.07741086987451
 20
7.015038848809226
 11
17.07741086987451
 21
6.609340886937221
 72
     1
 10
17.07741086987451
 20
6.609340886937221
 11
17.29501830876732
 21
6.44261105785752
 72
     1
 10
17.29501830876732
 20
6.44261105785752
 11
17.51261869210476
 21
6.609340886937221
 72
     1
 10
17.51261869210476
 20
6.609340886937221
 11
17.51261869210476
 21
7.015038848809226
 72
     1
 10
17.51261869210476
 20
7.015038848809226
 11
18.07521103886295
 21
7.015038848809226
 72
     1
 10
18.07521103886295
 20
7.015038848809226
 11
18.07521103886295
 21
6.350910004641453
 97
        0
 92
        1
 93
       11
 72
     1
 10
18.86601885202109
 20
6.520419722539122
 11
18.86601885202109
 21
5.656230605697535
 72
     1
 10
18.86601885202109
 20
5.656230605697535
 11
19.30121961869597
 21
5.656230605697535
 72
     1
 10
19.30121961869597
 20
5.656230605697535
 11
19.30121961869597
 21
6.314789088896308
 72
     1
 10
19.30121961869597
 20
6.314789088896308
 11
19.5825210837416
 21
6.314789088896308
 72
     1
 10
19.5825210837416
 20
6.314789088896308
 11
19.86380843767647
 21
6.020240818633082
 72
     1
 10
19.86380843767647
 20
6.020240818633082
 11
19.86380843767647
 21
5.158831590609463
 72
     1
 10
19.86380843767647
 20
5.158831590609463
 11
18.30606881075105
 21
5.158831590609463
 72
     1
 10
18.30606881075105
 20
5.158831590609463
 11
18.30343003304059
 21
7.017808154294131
 72
     1
 10
18.30343003304059
 20
7.017808154294131
 11
19.86380843767647
 21
7.017808154294131
 72
     1
 10
19.86380843767647
 20
7.017808154294131
 11
19.86380843767647
 21
6.520419722539122
 72
     1
 10
19.86380843767647
 20
6.520419722539122
 11
18.86601885202109
 21
6.520419722539122
 97
        0
 92
        1
 93
       12
 72
     1
 10
20.63604955686385
 20
6.520419722539122
 11
20.63604955686385
 21
6.337021143884677
 72
     1
 10
20.63604955686385
 20
6.337021143884677
 11
21.41623875918178
 21
6.337021143884677
 72
     1
 10
21.41623875918178
 20
6.337021143884677
 11
21.41623875918178
 21
5.83962918435198
 72
     1
 10
21.41623875918178
 20
5.83962918435198
 11
20.63604955686385
 21
5.83962918435198
 72
     1
 10
20.63604955686385
 20
5.83962918435198
 11
20.63604955686385
 21
5.656230605697535
 72
     1
 10
20.63604955686385
 20
5.656230605697535
 11
21.63384972585229
 21
5.656230605697535
 72
     1
 10
21.63384972585229
 20
5.656230605697535
 11
21.63384972585229
 21
5.158831590609463
 72
     1
 10
21.63384972585229
 20
5.158831590609463
 11
20.07346073788335
 21
5.158831590609463
 72
     1
 10
20.07346073788335
 20
5.158831590609463
 11
20.07346073788335
 21
7.015038848809226
 72
     1
 10
20.07346073788335
 20
7.015038848809226
 11
21.63384972585229
 21
7.017808154294131
 72
     1
 10
21.63384972585229
 20
7.017808154294131
 11
21.63384972585229
 21
6.520419722539122
 72
     1
 10
21.63384972585229
 20
6.520419722539122
 11
20.63604955686385
 21
6.520419722539122
 97
        0
 92
        1
 93
       12
 72
     1
 10
23.95851058321191
 20
7.017808154294131
 11
23.95851058321191
 21
5.158831590609463
 72
     1
 10
23.95851058321191
 20
5.158831590609463
 11
23.39591823645373
 21
5.158831590609463
 72
     1
 10
23.39591823645373
 20
5.158831590609463
 11
23.39591823645373
 21
6.520419722539122
 72
     1
 10
23.39591823645373
 20
6.520419722539122
 11
23.1862800473576
 21
6.520419722539122
 72
     1
 10
23.1862800473576
 20
6.520419722539122
 11
23.1862800473576
 21
5.158831590609463
 72
     1
 10
23.1862800473576
 20
5.158831590609463
 11
22.62368770059942
 21
5.158831590609463
 72
     1
 10
22.62368770059942
 20
5.158831590609463
 11
22.62368770059942
 21
6.520419722539122
 72
     1
 10
22.62368770059942
 20
6.520419722539122
 11
22.4113895671267
 21
6.520419722539122
 72
     1
 10
22.4113895671267
 20
6.520419722539122
 11
22.4113895671267
 21
5.158831590609463
 72
     1
 10
22.4113895671267
 20
5.158831590609463
 11
21.84880074814621
 21
5.158831590609463
 72
     1
 10
21.84880074814621
 20
5.158831590609463
 11
21.84880074814621
 21
7.015038848809226
 72
     1
 10
21.84880074814621
 20
7.015038848809226
 11
23.95851058321191
 21
7.017808154294131
 97
        0
 75
     0
 76
     1
 98
        0
  0
INSERT
  5
10A
330
1F
100
AcDbEntity
  8
Capa 1
100
AcDbBlockReference
  2
block 2
 10
0.0
 20
0.0
 30
0.0
  0
ENDSEC
  0
SECTION
  2
OBJECTS
  0
DICTIONARY
  5
C
330
0
100
AcDbDictionary
281
     1
  3
ACAD_GROUP
350
D
  3
ACAD_LAYOUT
350
1A
  3
ACAD_MATERIAL
350
3B
  3
ACAD_MLEADERSTYLE
350
148
  3
ACAD_MLINESTYLE
350
17
  3
ACAD_PLOTSETTINGS
350
19
  3
ACAD_PLOTSTYLENAME
350
E
  3
ACAD_TABLESTYLE
350
147
  3
ACAD_VISUALSTYLE
350
2A
  0
SUN
  5
3F
330
29
100
AcDbSun
 90
        1
290
     0
 63
     7
421
 16777215
 40
1.0
291
     1
 91
  2455826
 92
 54000000
292
     0
 70
     2
 71
   256
280
     1
  0
DICTIONARY
  5
D
102
{ACAD_REACTORS
330
C
102
}
330
C
100
AcDbDictionary
281
     1
  0
DICTIONARY
  5
1A
102
{ACAD_REACTORS
330
C
102
}
330
C
100
AcDbDictionary
281
     1
  3
Layout1
350
1E
  3
Layout2
350
26
  3
Model
350
22
  0
DICTIONARY
  5
3B
102
{ACAD_REACTORS
330
C
102
}
330
C
100
AcDbDictionary
281
     1
  3
ByBlock
350
3D
  3
ByLayer
350
3C
  3
Global
350
3E
  0
DICTIONARY
  5
148
102
{ACAD_REACTORS
330
C
102
}
330
C
100
AcDbDictionary
281
     1
  0
DICTIONARY
  5
17
102
{ACAD_REACTORS
330
C
102
}
330
C
100
AcDbDictionary
281
     1
  3
Standard
350
18
  0
DICTIONARY
  5
19
102
{ACAD_REACTORS
330
C
102
}
330
C
100
AcDbDictionary
281
     1
  0
ACDBDICTIONARYWDFLT
  5
E
102
{ACAD_REACTORS
330
C
102
}
330
C
100
AcDbDictionary
281
     1
  3
Normal
350
F
100
AcDbDictionaryWithDefault
340
F
  0
DICTIONARY
  5
147
102
{ACAD_REACTORS
330
C
102
}
330
C
100
AcDbDictionary
281
     1
  0
DICTIONARY
  5
2A
102
{ACAD_REACTORS
330
C
102
}
330
C
100
AcDbDictionary
281
     1
  3
2dWireframe
350
2F
  3
3D Hidden
350
31
  3
3dWireframe
350
30
  3
Basic
350
32
  3
Brighten
350
36
  3
ColorChange
350
3A
  3
Conceptual
350
34
  3
Dim
350
35
  3
Facepattern
350
39
  3
Flat
350
2B
  3
FlatWithEdges
350
2C
  3
Gouraud
350
2D
  3
GouraudWithEdges
350
2E
  3
Linepattern
350
38
  3
Realistic
350
33
  3
Thicken
350
37
  0
LAYOUT
  5
1E
102
{ACAD_REACTORS
330
1A
102
}
330
1A
100
AcDbPlotSettings
  1

  2
none_device
  4

  6

 40
0.0
 41
0.0
 42
0.0
 43
0.0
 44
0.0
 45
0.0
 46
0.0
 47
0.0
 48
0.0
 49
0.0
140
0.0
141
0.0
142
1.0
143
1.0
 70
   688
 72
     0
 73
     0
 74
     5
  7

 75
    16
 76
     0
 77
     2
 78
   300
147
1.0
148
0.0
149
0.0
100
AcDbLayout
  1
Layout1
 70
     1
 71
     1
 10
0.0
 20
0.0
 11
12.0
 21
9.0
 12
0.0
 22
0.0
 32
0.0
 14
1.000000000000000E+20
 24
1.000000000000000E+20
 34
1.000000000000000E+20
 15
-1.000000000000000E+20
 25
-1.000000000000000E+20
 35
-1.000000000000000E+20
146
0.0
 13
0.0
 23
0.0
 33
0.0
 16
1.0
 26
0.0
 36
0.0
 17
0.0
 27
1.0
 37
0.0
 76
     0
330
1B
  0
LAYOUT
  5
26
102
{ACAD_REACTORS
330
1A
102
}
330
1A
100
AcDbPlotSettings
  1

  2
none_device
  4

  6

 40
0.0
 41
0.0
 42
0.0
 43
0.0
 44
0.0
 45
0.0
 46
0.0
 47
0.0
 48
0.0
 49
0.0
140
0.0
141
0.0
142
1.0
143
1.0
 70
   688
 72
     0
 73
     0
 74
     5
  7

 75
    16
 76
     0
 77
     2
 78
   300
147
1.0
148
0.0
149
0.0
100
AcDbLayout
  1
Layout2
 70
     1
 71
     2
 10
0.0
 20
0.0
 11
0.0
 21
0.0
 12
0.0
 22
0.0
 32
0.0
 14
0.0
 24
0.0
 34
0.0
 15
0.0
 25
0.0
 35
0.0
146
0.0
 13
0.0
 23
0.0
 33
0.0
 16
1.0
 26
0.0
 36
0.0
 17
0.0
 27
1.0
 37
0.0
 76
     0
330
23
  0
LAYOUT
  5
22
102
{ACAD_REACTORS
330
1A
102
}
330
1A
100
AcDbPlotSettings
  1

  2
none_device
  4

  6

 40
0.0
 41
0.0
 42
0.0
 43
0.0
 44
0.0
 45
0.0
 46
0.0
 47
0.0
 48
0.0
 49
0.0
140
0.0
141
0.0
142
1.0
143
1.0
 70
  1712
 72
     0
 73
     0
 74
     0
  7

 75
     0
 76
     0
 77
     2
 78
   300
147
1.0
148
0.0
149
0.0
100
AcDbLayout
  1
Model
 70
     1
 71
     0
 10
0.0
 20
0.0
 11
12.0
 21
9.0
 12
0.0
 22
0.0
 32
0.0
 14
1.000000000000000E+20
 24
1.000000000000000E+20
 34
1.000000000000000E+20
 15
-1.000000000000000E+20
 25
-1.000000000000000E+20
 35
-1.000000000000000E+20
146
0.0
 13
0.0
 23
0.0
 33
0.0
 16
1.0
 26
0.0
 36
0.0
 17
0.0
 27
1.0
 37
0.0
 76
     0
330
1F
331
29
  0
MATERIAL
  5
3D
102
{ACAD_REACTORS
330
3B
102
}
330
3B
100
AcDbMaterial
  1
ByBlock
 72
     1
 94
      127
  0
MATERIAL
  5
3C
102
{ACAD_REACTORS
330
3B
102
}
330
3B
100
AcDbMaterial
  1
ByLayer
 72
     1
 94
      127
  0
MATERIAL
  5
3E
102
{ACAD_REACTORS
330
3B
102
}
330
3B
100
AcDbMaterial
  1
Global
 72
     1
 94
      127
  0
MLINESTYLE
  5
18
102
{ACAD_REACTORS
330
17
102
}
330
17
100
AcDbMlineStyle
  2
Standard
 70
     0
  3

 62
   256
 51
90.0
 52
90.0
 71
     2
 49
0.5
 62
   256
  6
BYLAYER
 49
-0.5
 62
   256
  6
BYLAYER
  0
ACDBPLACEHOLDER
  5
F
102
{ACAD_REACTORS
330
E
102
}
330
E
  0
VISUALSTYLE
  5
2F
102
{ACAD_REACTORS
330
2A
102
}
330
2A
100
AcDbVisualStyle
  2
2dWireframe
 70
     4
177
     2
291
     0
 71
     0
176
     1
 72
     2
176
     1
 73
     0
176
     1
 90
        0
176
     1
 40
-0.6
176
     1
 41
-30.0
176
     1
 62
     5
 63
     7
421
 16777215
176
     1
 74
     1
176
     1
 91
        4
176
     1
 64
     7
176
     1
 65
   257
176
     1
 75
     1
176
     1
175
     1
176
     1
 42
1.0
176
     1
 92
        0
176
     1
 66
   257
176
     1
 43
1.0
176
     1
 76
     1
176
     1
 77
     6
176
     1
 78
     2
176
     1
 67
     7
176
     1
 79
     5
176
     1
170
     0
176
     1
171
     0
176
     1
290
     0
176
     1
 93
        1
176
     1
 44
0.0
176
     1
173
     0
176
     1
  0
VISUALSTYLE
  5
31
102
{ACAD_REACTORS
330
2A
102
}
330
2A
100
AcDbVisualStyle
  2
3D Hidden
 70
     6
177
     2
291
     0
 71
     1
176
     1
 72
     2
176
     1
 73
     2
176
     1
 90
        0
176
     1
 40
-0.6
176
     1
 41
-30.0
176
     1
 62
     5
 63
     7
421
 16777215
176
     1
 74
     2
176
     1
 91
        2
176
     1
 64
     7
176
     1
 65
   257
176
     1
 75
     2
176
     1
175
     1
176
     1
 42
40.0
176
     1
 92
        0
176
     1
 66
   257
176
     1
 43
1.0
176
     1
 76
     1
176
     1
 77
     6
176
     1
 78
     2
176
     1
 67
     7
176
     1
 79
     3
176
     1
170
     0
176
     1
171
     0
176
     1
290
     0
176
     1
 93
        1
176
     1
 44
0.0
176
     1
173
     0
176
     1
  0
VISUALSTYLE
  5
30
102
{ACAD_REACTORS
330
2A
102
}
330
2A
100
AcDbVisualStyle
  2
3dWireframe
 70
     5
177
     2
291
     0
 71
     0
176
     1
 72
     2
176
     1
 73
     0
176
     1
 90
        0
176
     1
 40
-0.6
176
     1
 41
-30.0
176
     1
 62
     5
 63
     7
421
 16777215
176
     1
 74
     1
176
     1
 91
        4
176
     1
 64
     7
176
     1
 65
   257
176
     1
 75
     1
176
     1
175
     1
176
     1
 42
1.0
176
     1
 92
        0
176
     1
 66
   257
176
     1
 43
1.0
176
     1
 76
     1
176
     1
 77
     6
176
     1
 78
     2
176
     1
 67
     7
176
     1
 79
     5
176
     1
170
     0
176
     1
171
     0
176
     1
290
     0
176
     1
 93
        1
176
     1
 44
0.0
176
     1
173
     0
176
     1
  0
VISUALSTYLE
  5
32
102
{ACAD_REACTORS
330
2A
102
}
330
2A
100
AcDbVisualStyle
  2
Basic
 70
     7
177
     2
291
     1
 71
     1
176
     1
 72
     0
176
     1
 73
     1
176
     1
 90
        0
176
     1
 40
-0.6
176
     1
 41
-30.0
176
     1
 62
     5
 63
     7
421
 16777215
176
     1
 74
     0
176
     1
 91
        4
176
     1
 64
     7
176
     1
 65
   257
176
     1
 75
     1
176
     1
175
     1
176
     1
 42
1.0
176
     1
 92
        8
176
     1
 66
     7
176
     1
 43
1.0
176
     1
 76
     1
176
     1
 77
     6
176
     1
 78
     2
176
     1
 67
     7
176
     1
 79
     5
176
     1
170
     0
176
     1
171
     0
176
     1
290
     0
176
     1
 93
        1
176
     1
 44
0.0
176
     1
173
     0
176
     1
  0
VISUALSTYLE
  5
36
102
{ACAD_REACTORS
330
2A
102
}
330
2A
100
AcDbVisualStyle
  2
Brighten
 70
    12
177
     2
291
     1
 71
     2
176
     1
 72
     2
176
     1
 73
     0
176
     1
 90
        0
176
     1
 40
-0.6
176
     1
 41
-30.0
176
     1
 62
     5
 63
     7
421
 16777215
176
     1
 74
     1
176
     1
 91
        4
176
     1
 64
     7
176
     1
 65
   257
176
     1
 75
     1
176
     1
175
     1
176
     1
 42
1.0
176
     1
 92
        8
176
     1
 66
     7
176
     1
 43
1.0
176
     1
 76
     1
176
     1
 77
     6
176
     1
 78
     2
176
     1
 67
     7
176
     1
 79
     5
176
     1
170
     0
176
     1
171
     0
176
     1
290
     0
176
     1
 93
        1
176
     1
 44
50.0
176
     1
173
     0
176
     1
  0
VISUALSTYLE
  5
3A
102
{ACAD_REACTORS
330
2A
102
}
330
2A
100
AcDbVisualStyle
  2
ColorChange
 70
    16
177
     2
291
     1
 71
     2
176
     1
 72
     2
176
     1
 73
     3
176
     1
 90
        0
176
     1
 40
-0.6
176
     1
 41
-30.0
176
     1
 62
     5
 63
     8
421
  8421504
176
     1
 74
     1
176
     1
 91
        4
176
     1
 64
     7
176
     1
 65
   257
176
     1
 75
     1
176
     1
175
     1
176
     1
 42
1.0
176
     1
 92
        8
176
     1
 66
     8
424
  8421504
176
     1
 43
1.0
176
     1
 76
     1
176
     1
 77
     6
176
     1
 78
     2
176
     1
 67
     7
176
     1
 79
     5
176
     1
170
     0
176
     1
171
     0
176
     1
290
     0
176
     1
 93
        1
176
     1
 44
0.0
176
     1
173
     0
176
     1
  0
VISUALSTYLE
  5
34
102
{ACAD_REACTORS
330
2A
102
}
330
2A
100
AcDbVisualStyle
  2
Conceptual
 70
     9
177
     2
291
     0
 71
     3
176
     1
 72
     2
176
     1
 73
     0
176
     1
 90
        0
176
     1
 40
-0.6
176
     1
 41
-30.0
176
     1
 62
     5
 63
     7
421
 16777215
176
     1
 74
     2
176
     1
 91
        2
176
     1
 64
     7
176
     1
 65
   257
176
     1
 75
     1
176
     1
175
     1
176
     1
 42
40.0
176
     1
 92
        8
176
     1
 66
     7
176
     1
 43
1.0
176
     1
 76
     1
176
     1
 77
     6
176
     1
 78
     2
176
     1
 67
     7
176
     1
 79
     3
176
     1
170
     0
176
     1
171
     0
176
     1
290
     0
176
     1
 93
        1
176
     1
 44
0.0
176
     1
173
     0
176
     1
  0
VISUALSTYLE
  5
35
102
{ACAD_REACTORS
330
2A
102
}
330
2A
100
AcDbVisualStyle
  2
Dim
 70
    11
177
     2
291
     1
 71
     2
176
     1
 72
     2
176
     1
 73
     0
176
     1
 90
        0
176
     1
 40
-0.6
176
     1
 41
-30.0
176
     1
 62
     5
 63
     7
421
 16777215
176
     1
 74
     1
176
     1
 91
        4
176
     1
 64
     7
176
     1
 65
   257
176
     1
 75
     1
176
     1
175
     1
176
     1
 42
1.0
176
     1
 92
        8
176
     1
 66
     7
176
     1
 43
1.0
176
     1
 76
     1
176
     1
 77
     6
176
     1
 78
     2
176
     1
 67
     7
176
     1
 79
     5
176
     1
170
     0
176
     1
171
     0
176
     1
290
     0
176
     1
 93
        1
176
     1
 44
-50.0
176
     1
173
     0
176
     1
  0
VISUALSTYLE
  5
39
102
{ACAD_REACTORS
330
2A
102
}
330
2A
100
AcDbVisualStyle
  2
Facepattern
 70
    15
177
     2
291
     1
 71
     2
176
     1
 72
     2
176
     1
 73
     0
176
     1
 90
        0
176
     1
 40
-0.6
176
     1
 41
-30.0
176
     1
 62
     5
 63
     7
421
 16777215
176
     1
 74
     1
176
     1
 91
        4
176
     1
 64
     7
176
     1
 65
   257
176
     1
 75
     1
176
     1
175
     1
176
     1
 42
1.0
176
     1
 92
        8
176
     1
 66
     7
176
     1
 43
1.0
176
     1
 76
     1
176
     1
 77
     6
176
     1
 78
     2
176
     1
 67
     7
176
     1
 79
     5
176
     1
170
     0
176
     1
171
     0
176
     1
290
     0
176
     1
 93
        1
176
     1
 44
0.0
176
     1
173
     0
176
     1
  0
VISUALSTYLE
  5
2B
102
{ACAD_REACTORS
330
2A
102
}
330
2A
100
AcDbVisualStyle
  2
Flat
 70
     0
177
     2
291
     1
 71
     2
176
     1
 72
     1
176
     1
 73
     1
176
     1
 90
        2
176
     1
 40
-0.6
176
     1
 41
30.0
176
     1
 62
     5
 63
     7
421
 16777215
176
     1
 74
     0
176
     1
 91
        4
176
     1
 64
     7
176
     1
 65
   257
176
     1
 75
     1
176
     1
175
     1
176
     1
 42
1.0
176
     1
 92
        8
176
     1
 66
     7
176
     1
 43
1.0
176
     1
 76
     1
176
     1
 77
     6
176
     1
 78
     2
176
     1
 67
     7
176
     1
 79
     5
176
     1
170
     0
176
     1
171
     0
176
     1
290
     0
176
     1
 93
       13
176
     1
 44
0.0
176
     1
173
     0
176
     1
  0
VISUALSTYLE
  5
2C
102
{ACAD_REACTORS
330
2A
102
}
330
2A
100
AcDbVisualStyle
  2
FlatWithEdges
 70
     1
177
     2
291
     1
 71
     2
176
     1
 72
     1
176
     1
 73
     1
176
     1
 90
        2
176
     1
 40
-0.6
176
     1
 41
30.0
176
     1
 62
     5
 63
     7
421
 16777215
176
     1
 74
     1
176
     1
 91
        4
176
     1
 64
     7
176
     1
 65
   257
176
     1
 75
     1
176
     1
175
     1
176
     1
 42
1.0
176
     1
 92
        0
176
     1
 66
   257
176
     1
 43
1.0
176
     1
 76
     1
176
     1
 77
     6
176
     1
 78
     2
176
     1
 67
     7
176
     1
 79
     5
176
     1
170
     0
176
     1
171
     0
176
     1
290
     0
176
     1
 93
       13
176
     1
 44
0.0
176
     1
173
     0
176
     1
  0
VISUALSTYLE
  5
2D
102
{ACAD_REACTORS
330
2A
102
}
330
2A
100
AcDbVisualStyle
  2
Gouraud
 70
     2
177
     2
291
     1
 71
     2
176
     1
 72
     2
176
     1
 73
     1
176
     1
 90
        2
176
     1
 40
-0.6
176
     1
 41
30.0
176
     1
 62
     5
 63
     7
421
 16777215
176
     1
 74
     0
176
     1
 91
        4
176
     1
 64
     7
176
     1
 65
   257
176
     1
 75
     1
176
     1
175
     1
176
     1
 42
1.0
176
     1
 92
        0
176
     1
 66
     7
176
     1
 43
1.0
176
     1
 76
     1
176
     1
 77
     6
176
     1
 78
     2
176
     1
 67
     7
176
     1
 79
     5
176
     1
170
     0
176
     1
171
     0
176
     1
290
     0
176
     1
 93
       13
176
     1
 44
0.0
176
     1
173
     0
176
     1
  0
VISUALSTYLE
  5
2E
102
{ACAD_REACTORS
330
2A
102
}
330
2A
100
AcDbVisualStyle
  2
GouraudWithEdges
 70
     3
177
     2
291
     1
 71
     2
176
     1
 72
     2
176
     1
 73
     1
176
     1
 90
        2
176
     1
 40
-0.6
176
     1
 41
30.0
176
     1
 62
     5
 63
     7
421
 16777215
176
     1
 74
     1
176
     1
 91
        4
176
     1
 64
     7
176
     1
 65
   257
176
     1
 75
     1
176
     1
175
     1
176
     1
 42
1.0
176
     1
 92
        0
176
     1
 66
   257
176
     1
 43
1.0
176
     1
 76
     1
176
     1
 77
     6
176
     1
 78
     2
176
     1
 67
     7
176
     1
 79
     5
176
     1
170
     0
176
     1
171
     0
176
     1
290
     0
176
     1
 93
       13
176
     1
 44
0.0
176
     1
173
     0
176
     1
  0
VISUALSTYLE
  5
38
102
{ACAD_REACTORS
330
2A
102
}
330
2A
100
AcDbVisualStyle
  2
Linepattern
 70
    14
177
     2
291
     1
 71
     2
176
     1
 72
     2
176
     1
 73
     0
176
     1
 90
        0
176
     1
 40
-0.6
176
     1
 41
-30.0
176
     1
 62
     5
 63
     7
421
 16777215
176
     1
 74
     1
176
     1
 91
        4
176
     1
 64
     7
176
     1
 65
   257
176
     1
 75
     7
176
     1
175
     7
176
     1
 42
1.0
176
     1
 92
        8
176
     1
 66
     7
176
     1
 43
1.0
176
     1
 76
     1
176
     1
 77
     6
176
     1
 78
     2
176
     1
 67
     7
176
     1
 79
     5
176
     1
170
     0
176
     1
171
     0
176
     1
290
     0
176
     1
 93
        1
176
     1
 44
0.0
176
     1
173
     0
176
     1
  0
VISUALSTYLE
  5
33
102
{ACAD_REACTORS
330
2A
102
}
330
2A
100
AcDbVisualStyle
  2
Realistic
 70
     8
177
     2
291
     0
 71
     2
176
     1
 72
     2
176
     1
 73
     0
176
     1
 90
        0
176
     1
 40
-0.6
176
     1
 41
-30.0
176
     1
 62
     5
 63
     7
421
 16777215
176
     1
 74
     1
176
     1
 91
        0
176
     1
 64
     7
176
     1
 65
   257
176
     1
 75
     1
176
     1
175
     1
176
     1
 42
1.0
176
     1
 92
        8
176
     1
 66
     8
424
  7895160
176
     1
 43
1.0
176
     1
 76
     1
176
     1
 77
     6
176
     1
 78
     2
176
     1
 67
     7
176
     1
 79
     5
176
     1
170
     0
176
     1
171
     0
176
     1
290
     0
176
     1
 93
       13
176
     1
 44
0.0
176
     1
173
     0
176
     1
  0
VISUALSTYLE
  5
37
102
{ACAD_REACTORS
330
2A
102
}
330
2A
100
AcDbVisualStyle
  2
Thicken
 70
    13
177
     2
291
     1
 71
     2
176
     1
 72
     2
176
     1
 73
     0
176
     1
 90
        0
176
     1
 40
-0.6
176
     1
 41
-30.0
176
     1
 62
     5
 63
     7
421
 16777215
176
     1
 74
     1
176
     1
 91
        4
176
     1
 64
     7
176
     1
 65
   257
176
     1
 75
     1
176
     1
175
     1
176
     1
 42
1.0
176
     1
 92
       12
176
     1
 66
     7
176
     1
 43
1.0
176
     1
 76
     1
176
     1
 77
     6
176
     1
 78
     2
176
     1
 67
     7
176
     1
 79
     5
176
     1
170
     0
176
     1
171
     0
176
     1
290
     0
176
     1
 93
        1
176
     1
 44
0.0
176
     1
173
     0
176
     1
  0
ENDSEC
  0
EOF
